<svg width="89" height="104" viewBox="0 0 89 104" fill="none" xmlns="http://www.w3.org/2000/svg">
<path d="M44.6523 52.2928C44.6523 52.2928 50.5889 63.9647 62.3248 70.7291C74.0606 77.4954 87.1522 76.7919 87.1522 76.7919C87.1522 76.7919 81.2174 65.1181 69.4816 58.3537C57.7458 51.5893 44.6523 52.2928 44.6523 52.2928ZM44.6523 52.2928C44.6523 52.2928 31.5607 51.5893 19.8249 58.3537C8.08904 65.1181 2.1543 76.7919 2.1543 76.7919C2.1543 76.7919 15.2459 77.4954 26.9817 70.7291C38.7175 63.9647 44.6523 52.2928 44.6523 52.2928ZM44.6523 51.8867C44.6523 51.8867 38.7175 40.2149 26.9817 33.4505C15.2459 26.6841 2.1543 27.3896 2.1543 27.3896C2.1543 27.3896 8.08904 39.0614 19.8249 45.8277C31.5607 52.5921 44.6523 51.8867 44.6523 51.8867ZM44.6523 51.8867C44.6523 51.8867 57.7458 52.5921 69.4816 45.8277C81.2174 39.0614 87.1522 27.3896 87.1522 27.3896C87.1522 27.3896 74.0606 26.6841 62.3248 33.4505C50.5889 40.2149 44.6523 51.8867 44.6523 51.8867ZM51.8091 77.5774C51.8091 91.1081 44.6523 102.076 44.6523 102.076C44.6523 102.076 37.4954 91.1081 37.4954 77.5774C37.4954 64.0466 44.6523 53.0764 44.6523 53.0764C44.6523 53.0764 51.8091 64.0466 51.8091 77.5774ZM37.4954 26.6022C37.4954 13.0734 44.6523 2.10312 44.6523 2.10312C44.6523 2.10312 51.8091 13.0734 51.8091 26.6022C51.8091 40.1329 44.6523 51.1012 44.6523 51.1012C44.6523 51.1012 37.4954 40.1329 37.4954 26.6022Z" stroke="white" stroke-width="1.92256" stroke-miterlimit="10" style="mix-blend-mode:color-dodge"/>
</svg>
