<svg width="19" height="19" viewBox="0 0 19 19" fill="none" xmlns="http://www.w3.org/2000/svg">
<g clip-path="url(#clip0_565_1443)">
<path d="M9.90511 2.15832C12.2881 2.15832 12.5703 2.16877 13.5075 2.21058C14.3784 2.2489 14.8488 2.39523 15.1623 2.51716C15.5769 2.67742 15.8765 2.87252 16.1866 3.18259C16.5001 3.49614 16.6917 3.79227 16.852 4.20686C16.9739 4.52041 17.1203 4.99422 17.1586 5.86171C17.2004 6.80236 17.2108 7.08456 17.2108 9.46406C17.2108 11.847 17.2004 12.1292 17.1586 13.0664C17.1203 13.9374 16.9739 14.4077 16.852 14.7213C16.6917 15.1358 16.4966 15.4355 16.1866 15.7455C15.873 16.0591 15.5769 16.2507 15.1623 16.411C14.8488 16.5329 14.375 16.6792 13.5075 16.7175C12.5668 16.7593 12.2846 16.7698 9.90511 16.7698C7.52212 16.7698 7.23993 16.7593 6.30276 16.7175C5.43178 16.6792 4.96146 16.5329 4.64791 16.411C4.23332 16.2507 3.93371 16.0556 3.62364 15.7455C3.31009 15.432 3.11847 15.1358 2.95821 14.7213C2.83628 14.4077 2.68995 13.9339 2.65163 13.0664C2.60983 12.1258 2.59937 11.8436 2.59937 9.46406C2.59937 7.08107 2.60983 6.79888 2.65163 5.86171C2.68995 4.99073 2.83628 4.52041 2.95821 4.20686C3.11847 3.79227 3.31357 3.49266 3.62364 3.18259C3.93719 2.86904 4.23332 2.67742 4.64791 2.51716C4.96146 2.39523 5.43527 2.2489 6.30276 2.21058C7.23993 2.16877 7.52212 2.15832 9.90511 2.15832ZM9.90511 0.552246C7.4838 0.552246 7.1807 0.562698 6.2296 0.604505C5.28198 0.646311 4.63049 0.799603 4.06609 1.01909C3.47732 1.24903 2.97912 1.55212 2.4844 2.05032C1.98621 2.54504 1.68311 3.04323 1.45317 3.62853C1.23368 4.1964 1.08039 4.84441 1.03859 5.79203C0.99678 6.74662 0.986328 7.04972 0.986328 9.47103C0.986328 11.8923 0.99678 12.1954 1.03859 13.1465C1.08039 14.0942 1.23368 14.7456 1.45317 15.31C1.68311 15.8988 1.98621 16.397 2.4844 16.8917C2.97912 17.3864 3.47732 17.693 4.06261 17.9195C4.63049 18.139 5.27849 18.2923 6.22611 18.3341C7.17722 18.3759 7.48032 18.3863 9.90162 18.3863C12.3229 18.3863 12.626 18.3759 13.5771 18.3341C14.5248 18.2923 15.1762 18.139 15.7406 17.9195C16.3259 17.693 16.8241 17.3864 17.3188 16.8917C17.8136 16.397 18.1201 15.8988 18.3466 15.3135C18.5661 14.7456 18.7194 14.0976 18.7612 13.15C18.803 12.1989 18.8134 11.8958 18.8134 9.47451C18.8134 7.0532 18.803 6.7501 18.7612 5.799C18.7194 4.85138 18.5661 4.19989 18.3466 3.6355C18.1271 3.04323 17.824 2.54504 17.3258 2.05032C16.8311 1.55561 16.3329 1.24903 15.7476 1.02257C15.1797 0.803087 14.5317 0.649795 13.5841 0.607988C12.6295 0.562698 12.3264 0.552246 9.90511 0.552246Z" fill="white"/>
<path d="M9.9053 4.8894C7.37599 4.8894 5.32397 6.94142 5.32397 9.47073C5.32397 12 7.37599 14.0521 9.9053 14.0521C12.4346 14.0521 14.4866 12 14.4866 9.47073C14.4866 6.94142 12.4346 4.8894 9.9053 4.8894ZM9.9053 12.4425C8.26438 12.4425 6.93354 11.1116 6.93354 9.47073C6.93354 7.82981 8.26438 6.49897 9.9053 6.49897C11.5462 6.49897 12.8771 7.82981 12.8771 9.47073C12.8771 11.1116 11.5462 12.4425 9.9053 12.4425Z" fill="white"/>
<path d="M15.7375 4.70872C15.7375 5.30098 15.2567 5.77828 14.6679 5.77828C14.0757 5.77828 13.5984 5.2975 13.5984 4.70872C13.5984 4.11645 14.0792 3.63916 14.6679 3.63916C15.2567 3.63916 15.7375 4.11994 15.7375 4.70872Z" fill="white"/>
</g>
<defs>
<clipPath id="clip0_565_1443">
<rect width="17.8376" height="17.8376" fill="white" transform="translate(0.986328 0.552246)"/>
</clipPath>
</defs>
</svg>
