<svg width="12" height="7" viewBox="0 0 12 7" fill="none" xmlns="http://www.w3.org/2000/svg">
<path d="M1.34156 0H10.6582C10.823 0.000691026 10.9839 0.0502368 11.1206 0.142372C11.2572 0.234508 11.3635 0.365096 11.426 0.517623C11.4884 0.670151 11.5042 0.837766 11.4714 0.999277C11.4386 1.16079 11.3586 1.30894 11.2416 1.425L6.59156 6.075C6.51409 6.15311 6.42192 6.2151 6.32037 6.25741C6.21882 6.29972 6.1099 6.3215 5.99989 6.3215C5.88988 6.3215 5.78096 6.29972 5.67941 6.25741C5.57786 6.2151 5.48569 6.15311 5.40823 6.075L0.758225 1.425C0.641207 1.30894 0.561231 1.16079 0.52841 0.999277C0.495589 0.837766 0.511397 0.670151 0.573835 0.517623C0.636273 0.365096 0.742537 0.234508 0.87919 0.142372C1.01584 0.0502368 1.17675 0.000691026 1.34156 0Z" fill="white"/>
</svg>
