<svg width="19" height="19" viewBox="0 0 19 19" fill="none" xmlns="http://www.w3.org/2000/svg">
<g id="LinkedIn / Negative" clip-path="url(#clip0_565_1448)">
<g id="Group">
<path id="Vector" d="M17.4896 0.552002H2.28933C1.56119 0.552002 0.972412 1.12685 0.972412 1.83756V17.1005C0.972412 17.8112 1.56119 18.3896 2.28933 18.3896H17.4896C18.2177 18.3896 18.81 17.8112 18.81 17.104V1.83756C18.81 1.12685 18.2177 0.552002 17.4896 0.552002ZM6.26445 15.7523H3.61669V7.2376H6.26445V15.7523ZM4.94057 6.07747C4.0905 6.07747 3.40417 5.39114 3.40417 4.54455C3.40417 3.69796 4.0905 3.01163 4.94057 3.01163C5.78716 3.01163 6.47349 3.69796 6.47349 4.54455C6.47349 5.38765 5.78716 6.07747 4.94057 6.07747ZM16.1727 15.7523H13.5284V11.6134C13.5284 10.6274 13.511 9.35581 12.1522 9.35581C10.7761 9.35581 10.5671 10.4323 10.5671 11.5437V15.7523H7.92627V7.2376H10.4626V8.40123H10.4974C10.8493 7.73232 11.7133 7.02509 12.9988 7.02509C15.6779 7.02509 16.1727 8.78794 16.1727 11.0803V15.7523Z" fill="white"/>
</g>
</g>
<defs>
<clipPath id="clip0_565_1448">
<rect width="17.8376" height="17.8376" fill="white" transform="translate(0.972412 0.552002)"/>
</clipPath>
</defs>
</svg>
