<svg width="62" height="49" viewBox="0 0 62 49" fill="none" xmlns="http://www.w3.org/2000/svg">
<rect width="62" height="49" fill="#333333"/>
<rect width="188" height="111" transform="translate(-97 -30)" fill="white"/>
<path d="M55.6108 48L5.38922 48.0008V44.469H4.3286V46.0573H1.97587V43.7476H3.59102V42.7031H0V5.34956H3.59102V4.3051H1.98125V2.00082H4.3286V3.58366H5.38922V0.057251L55.6108 0.0563965V3.58281H56.6768V1.99996H59.0241V4.30424H57.409V5.34871H61V42.7023H57.409V43.7467H59.0241V46.0564H56.6768V44.4682H55.6108V48Z" fill="white"/>
<path d="M61.1454 5.2923V42.8746H57.5544V44.4897H58.4212V45.5019H57.3929V44.6351H55.7454V48.1669H5.38922V44.6351H3.74177V45.5019H2.71347V44.4897H3.60718V42.8746H0V5.2923H3.60718V3.67715H2.72422V2.665H3.75255V3.52641H5.4V0H55.7562V3.52641H57.4036V2.665H58.4212V3.67715H57.5436V5.2923H61.1454ZM61 42.7239L61 5.41614H57.4036V3.65563H55.6108V0.123834H5.53999V3.65563H3.74177V5.41614H0.150763V42.7023H3.74177V44.4682H5.53999V48H55.6108V44.4682H57.4036V42.7023L61 42.7239ZM58.3081 2.81036H57.5759V3.52641H58.3081V2.81036ZM58.3081 44.6566H57.5759V45.3727H58.3081V44.6566ZM3.60718 2.81036H2.87498V3.52641H3.60718V2.81036ZM3.60718 44.6566H2.87498V45.3727H3.60718V44.6566Z" fill="#643D3F"/>
<path d="M60.5 5.86457L60.5 42.2077H56.8928V43.5321H59.2402V46.2779H56.4513V43.9736H55.1162V47.5H5.97616V43.9736H4.62481V46.2779H1.83599V43.5321H4.18333V42.2077H0.586934L0.586914 5.86457H4.18331V4.54554H1.83597V1.79439H4.62479V4.10406H5.97614V0.572266L55.1162 0.572266V4.10406H56.4729V1.79439H59.2618V4.54554H56.8929V5.86457H60.5ZM60.0424 41.7878L60.0424 6.33298H56.4514V4.56708H54.6532V1.03527H6.41758V4.56708H4.62479V6.33298H1.02839L1.02841 41.7878H4.62481V43.5537H6.4176V47.0801H54.6532V43.5537H56.4513V41.7878H60.0424ZM58.7934 2.2628H56.8929V4.1256H58.7934V2.2628ZM58.7933 44.0167H56.8928V45.8795H58.7933V44.0167ZM4.18331 2.2628H2.27745V4.1256H4.18331V2.2628ZM4.18333 44.0167H2.27747V45.8795H4.18333V44.0167Z" fill="#643D3F"/>
</svg>
