<svg width="1130" height="424" viewBox="0 0 1130 424" fill="none" xmlns="http://www.w3.org/2000/svg">
<path d="M1080.42 421.267H48.2983V390.27H38.9898V404.209H18.3411V383.938H32.5164V374.771H1L1 47.4484H32.5164V38.2817H18.3884V18.0582H38.9898V31.95H48.2983V1.00058H1080.42V31.95H1089.78V18.0582H1110.38V38.2817H1096.2V47.4484H1127.72V374.771H1096.2V383.938H1110.38V404.209H1089.78V390.27H1080.42V421.267Z" fill="#E5CBBD"/>
<path d="M1129.5 47.4483V46.9483H1129H1097.89V33.773H1105.09H1105.59V33.273V24.3899V23.8899H1105.09H1096.16H1095.66V24.3899V31.45H1082.2V1.00058V0.500577L1081.7 0.50058L48.3971 0.506703L47.8971 0.506706V1.0067V31.4561H34.4383V24.396V23.896H33.9383H24.9132H24.4132V24.396V33.2791V33.7791H24.9132H32.1625V46.9544H1.00419H0.504196L0.50419 47.4544L0.5 376.387L0.499994 376.887H1H32.1583V390.062H24.8147H24.3147V390.562V399.446V399.946H24.8147H33.8395H34.3395V399.446V392.338H47.7984V422.835V423.335H48.2984L1081.6 423.329H1082.1V422.829V392.332H1095.56V399.44V399.94H1096.06H1105.09H1105.59V399.44V390.556V390.056H1105.09H1097.98V376.881H1129H1129.5V376.381L1129.5 47.4483ZM1095.66 374.869V389.867H1080.42H1079.92V390.367V420.864L50.1215 420.87V390.373V389.873H49.6215H34.3395V374.875V374.375H33.8395H2.82317L2.82735 49.0412H33.8437H34.3437V48.5412V33.5902H49.6257H50.1257V33.0902V2.59353L1079.93 2.58741V33.0841V33.5841H1080.43H1095.66V48.5351V49.0351H1096.16H1127.22L1127.22 374.555L1096.16 374.369L1095.66 374.366V374.869ZM1098.17 31.45V26.1656H1103.6V31.45H1098.17ZM1098.17 397.806V392.521H1103.59V397.806H1098.17ZM26.7364 31.4561V26.1718H32.1625V31.4561H26.7364ZM26.7322 397.812V392.527H32.1583V397.812H26.7322Z" fill="#643D3F" stroke="#643D3F"/>
<path d="M1123.91 52.4711V51.9711H1123.41H1092.26V41.3946H1112.55H1113.05V40.8946V16.7493V16.2493H1112.55H1088.07H1087.57V16.7493V36.52H1076.66V6.02335V5.52335H1076.16H54.2881H53.7881V6.02335V36.52H42.928V16.7493V16.2493H42.428H17.952H17.452V16.7493V40.8946V41.3946H17.952H38.0534V51.9711H6.98975H6.48975L6.48975 52.4711L6.48992 371.694L6.48992 372.194H6.98992H38.0536V382.818H17.9522H17.4522V383.318V407.416V407.916H17.9522H42.4282H42.9282V407.416V387.693H53.7883V418.142V418.642H54.2883H1076.16H1076.66V418.142V387.693H1087.38V407.416V407.916H1087.88H1112.36H1112.86V407.416V383.318V382.818H1112.36H1092.26V372.194H1123.41H1123.91V371.694L1123.91 52.4711ZM1087.38 56.582V57.082H1087.88H1118.9L1118.9 367.509H1087.88H1087.38V368.009V383.007H1072.1H1071.6V383.507V413.956H58.6626V383.507V383.007H58.1626H42.9282V368.009V367.509H42.4282H11.3645L11.3644 57.082H42.428H42.928V56.582V41.5837H58.1624H58.6624V41.0837V10.5869H1071.6V41.0837V41.5837H1072.1H1087.38V56.582ZM1092.26 36.7091V21.3602H1107.94V36.7091H1092.26ZM1092.26 403.419V388.071H1107.94V403.419H1092.26ZM22.3266 36.7091V21.3602H38.0534V36.7091H22.3266ZM22.3268 403.419V388.071H38.0536V403.419H22.3268Z" fill="#643D3F" stroke="#643D3F"/>
</svg>
