<svg width="432" height="79" viewBox="0 0 432 79" fill="none" xmlns="http://www.w3.org/2000/svg">
<path d="M30.95 43.976H31.91C31.91 43.304 31.718 42.92 31.43 42.728C31.142 42.92 30.95 43.304 30.95 43.976ZM28.07 43.976H29.03C29.03 43.304 28.838 42.92 28.55 42.728C28.262 42.92 28.07 43.304 28.07 43.976ZM29.51 43.976H30.47C30.47 43.304 30.278 42.92 29.99 42.728C29.702 42.92 29.51 43.304 29.51 43.976ZM20.486 74.216C26.534 74.216 31.142 69.992 31.142 64.136C31.142 63.848 31.142 64.136 31.142 50.216C31.142 47.72 30.854 46.856 29.99 46.376C29.126 46.856 28.838 47.72 28.838 50.216V65C28.166 72.68 23.078 73.736 19.43 74.024C19.526 74.12 20.102 74.216 20.486 74.216ZM27.974 49.832V64.136C27.686 72.296 22.31 73.064 18.95 73.064C14.726 73.064 11.558 70.856 8.87 65.288C10.118 70.376 13.382 74.984 20.39 74.984C26.918 74.984 32.006 70.856 32.006 63.944V49.832C32.006 47.144 31.334 45.992 29.99 45.32C28.646 45.992 27.974 47.144 27.974 49.832ZM8.87 59.624C9.926 67.592 13.574 72.2 18.95 72.2C22.31 72.2 27.11 71.432 27.11 63.272V45.992C27.11 45.608 27.014 45.416 26.726 45.32V43.976H27.11V43.208C27.11 42.92 27.014 42.728 26.726 42.728V41.384H27.302C27.014 40.808 26.63 39.944 26.63 39.176C26.63 38.216 27.11 37.544 28.55 36.68C29.318 36.2 29.606 35.912 29.702 35.528C29.51 35.336 29.606 35.24 29.798 35.048V34.952C29.606 34.856 29.606 34.568 29.894 34.472C29.798 34.472 29.51 34.28 29.51 33.992C29.51 33.8 29.606 33.608 29.798 33.512L29.99 32.36L30.182 33.512C30.374 33.608 30.47 33.8 30.47 33.992C30.47 34.28 30.182 34.472 30.086 34.472C30.374 34.568 30.374 34.856 30.182 34.952V35.048C30.374 35.24 30.47 35.336 30.278 35.528C30.374 35.912 30.662 36.2 31.43 36.68C32.87 37.544 33.35 38.216 33.35 39.176C33.35 39.944 32.966 40.808 32.678 41.384H33.254V42.728C32.966 42.728 32.87 42.92 32.87 43.208V43.976H33.254V45.32C32.966 45.416 32.87 45.608 32.87 45.992V63.56C32.87 71.432 27.398 75.848 20.39 75.848C9.926 75.848 8.006 67.592 6.566 60.584C5.414 55.592 2.63 56.552 2.246 57.608C0.902 55.112 2.342 52.136 5.126 51.272C4.934 49.256 5.51 48.488 7.718 46.76C10.214 44.744 10.502 43.016 9.35 41.96C10.214 41.576 11.27 41.672 11.654 41.864C14.054 42.92 13.19 45.896 10.982 49.544C8.678 53.192 8.39 56.072 8.87 59.624ZM8.678 47.912C10.598 46.472 11.27 45.032 11.27 45.032C11.078 45.992 10.31 47.336 9.542 48.584C7.622 51.656 6.758 55.016 7.238 57.8C5.894 54.824 3.398 54.92 3.398 54.92C3.494 54.728 3.782 53.576 6.086 52.808C6.47 52.616 6.854 52.232 6.758 51.464C6.662 49.832 7.046 49.16 8.678 47.912ZM2.534 56.072C5.798 54.44 7.814 60.776 7.814 60.776C7.91 56.456 7.43 53.672 10.214 49.064C11.462 47.048 12.326 44.936 12.23 43.88C12.23 43.304 11.654 42.44 10.694 42.44C11.462 43.688 10.598 45.512 8.198 47.336C6.566 48.584 5.894 49.448 5.99 51.176C6.086 51.944 5.99 51.944 5.414 52.136C3.494 52.904 2.438 54.344 2.534 56.072ZM18.854 41.768C20.678 41.768 22.022 40.424 22.022 38.6C22.022 37.352 21.446 36.488 20.294 35.912C20.486 36.296 20.582 36.584 20.582 36.872C20.582 37.832 19.814 38.6 18.854 38.6C17.894 38.6 17.126 37.832 17.126 36.872C17.126 36.584 17.222 36.296 17.414 35.912C16.262 36.488 15.686 37.352 15.686 38.6C15.686 40.424 17.03 41.768 18.854 41.768ZM41.5213 12.584H42.4813C42.4813 11.912 42.2893 11.528 42.0013 11.336C41.7133 11.528 41.5213 11.912 41.5213 12.584ZM38.5453 64.136H43.4413V65H37.6813V14.6C37.6813 14.216 37.5853 14.024 37.2973 13.928V12.584H37.6813V11.816C37.6813 11.528 37.5853 11.336 37.2973 11.336V9.992H37.8733C37.5853 9.41599 37.2013 8.552 37.2013 7.784C37.2013 6.824 37.6813 6.152 39.1213 5.288C39.8893 4.808 40.1773 4.51999 40.2733 4.136C40.0813 3.944 40.1773 3.848 40.3693 3.65599V3.56C40.1773 3.464 40.1773 3.17599 40.4653 3.08C40.3693 3.08 40.0813 2.888 40.0813 2.6C40.0813 2.408 40.1773 2.216 40.3693 2.12L40.5613 0.967995L40.7533 2.12C40.9453 2.216 41.0413 2.408 41.0413 2.6C41.0413 2.888 40.7533 3.08 40.6573 3.08C40.9453 3.17599 40.9453 3.464 40.7533 3.56V3.65599C40.9453 3.848 41.0413 3.944 40.8493 4.136C40.9453 4.51999 41.2333 4.808 42.0013 5.288C43.4413 6.152 43.9213 6.824 43.9213 7.784C43.9213 8.552 43.5373 9.41599 43.2493 9.992H43.8253V11.336C43.5373 11.336 43.4413 11.528 43.4413 11.816V12.584H43.8253V13.928C43.5373 14.024 43.4413 14.216 43.4413 14.6V60.104H42.5773V18.44C42.5773 15.752 41.9053 14.6 40.5613 13.928C39.2173 14.6 38.5453 15.752 38.5453 18.44V64.136ZM43.4413 63.272H39.4093V18.824C39.4093 16.328 39.6973 15.464 40.5613 14.984C41.4253 15.464 41.7133 16.328 41.7133 18.824V60.968H43.4413V63.272ZM38.6413 12.584H39.6013C39.6013 11.912 39.4093 11.528 39.1213 11.336C38.8333 11.528 38.6413 11.912 38.6413 12.584ZM40.0813 12.584H41.0413C41.0413 11.912 40.8493 11.528 40.5613 11.336C40.2733 11.528 40.0813 11.912 40.0813 12.584ZM90.1895 51.944H64.3655C61.4855 51.944 60.3335 53.48 60.3335 56.168V60.104H94.5095V56.168C94.5095 53.48 93.0695 51.944 90.1895 51.944ZM59.2775 43.88H60.2375C60.2375 43.208 60.0455 42.824 59.7575 42.632C59.4695 42.824 59.2775 43.208 59.2775 43.88ZM97.6775 60.968H99.4055V63.272H42.7655V60.968H57.1655V50.12C57.1655 47.624 57.4535 46.76 58.3175 46.28C59.1815 46.76 59.4695 47.624 59.4695 50.12V50.408C60.6215 49.256 61.6775 48.776 64.1735 48.776H89.7095C94.9895 48.776 97.6775 51.368 97.6775 56.648V60.968ZM56.3975 43.88H57.3575C57.3575 43.208 57.1655 42.824 56.8775 42.632C56.5895 42.824 56.3975 43.208 56.3975 43.88ZM57.8375 43.88H58.7975C58.7975 43.208 58.6055 42.824 58.3175 42.632C58.0295 42.824 57.8375 43.208 57.8375 43.88ZM90.1895 51.08H64.3655C60.9095 51.08 59.4695 52.904 59.4695 56.168V60.968H95.3735V56.168C95.3735 52.904 93.6455 51.08 90.1895 51.08ZM64.3655 52.808H90.1895C92.4935 52.808 93.6455 54.056 93.6455 56.168V59.24H61.1975V56.168C61.1975 54.056 62.0615 52.808 64.3655 52.808ZM42.7655 64.136H99.4055V65H42.7655V64.136ZM99.4055 60.104H98.5415V56.648C98.5415 50.792 95.5655 47.912 89.7095 47.912H64.1735C62.2535 47.912 61.4855 48.104 60.3335 48.68C60.1415 46.76 59.4695 45.8 58.3175 45.224C56.9735 45.896 56.3015 47.048 56.3015 49.736V60.104H42.7655V59.24H55.4375V45.896C55.4375 45.512 55.3415 45.32 55.0535 45.224V43.88H55.4375V43.112C55.4375 42.824 55.3415 42.632 55.0535 42.632V41.288H55.6295C55.3415 40.712 54.9575 39.848 54.9575 39.08C54.9575 38.12 55.4375 37.448 56.8775 36.584C57.6455 36.104 57.9335 35.816 58.0295 35.432C57.8375 35.24 57.9335 35.144 58.1255 34.952V34.856C57.9335 34.76 57.9335 34.472 58.2215 34.376C58.1255 34.376 57.8375 34.184 57.8375 33.896C57.8375 33.704 57.9335 33.512 58.1255 33.416L58.3175 32.264L58.5095 33.416C58.7015 33.512 58.7975 33.704 58.7975 33.896C58.7975 34.184 58.5095 34.376 58.4135 34.376C58.7015 34.472 58.7015 34.76 58.5095 34.856V34.952C58.7015 35.144 58.7975 35.24 58.6055 35.432C58.7015 35.816 58.9895 36.104 59.7575 36.584C61.1975 37.448 61.6775 38.12 61.6775 39.08C61.6775 39.848 61.2935 40.712 61.0055 41.288H61.5815V42.632C61.2935 42.632 61.1975 42.824 61.1975 43.112V43.88H61.5815V45.224C61.2935 45.32 61.1975 45.512 61.1975 45.896V47.432C62.1575 47.144 62.7335 47.048 64.1735 47.048H89.7095C96.1415 47.048 99.4055 50.216 99.4055 56.648V60.104ZM76.9415 42.248C78.7655 42.248 80.1095 40.904 80.1095 39.08C80.1095 37.832 79.5335 36.968 78.3815 36.392C78.5735 36.776 78.6695 37.064 78.6695 37.352C78.6695 38.312 77.9015 39.08 76.9415 39.08C75.9815 39.08 75.2135 38.312 75.2135 37.352C75.2135 37.064 75.3095 36.776 75.5015 36.392C74.3495 36.968 73.7735 37.832 73.7735 39.08C73.7735 40.904 75.1175 42.248 76.9415 42.248ZM116.398 63.272H98.7342V60.968H114.286C113.614 59.816 113.23 58.376 113.23 56.936C113.23 52.232 117.166 48.296 121.87 48.296C126.574 48.296 130.51 52.232 130.51 56.936C130.51 60.392 128.302 63.08 125.518 64.52C124.27 65.192 122.926 65.672 121.87 66.536C120.814 65.672 119.374 65.192 118.222 64.52C117.55 64.136 116.974 63.752 116.398 63.272ZM121.87 64.04C122.446 63.272 123.502 62.984 124.366 62.504C127.054 61.16 128.206 59.24 128.206 56.744C128.206 53.384 125.326 50.504 121.87 50.504C118.414 50.504 115.534 53.384 115.534 56.744C115.534 59.24 116.686 61.16 119.374 62.504C120.238 62.984 121.294 63.272 121.87 64.04ZM121.87 52.232C124.366 52.232 126.478 54.344 126.478 56.744C126.478 58.568 125.71 59.816 123.886 60.872C123.022 61.352 122.254 61.544 121.87 61.928C121.486 61.544 120.718 61.352 119.854 60.872C118.03 59.816 117.262 58.568 117.262 56.744C117.262 54.344 119.374 52.232 121.87 52.232ZM121.87 62.888C122.638 62.312 123.694 61.928 124.27 61.64C126.478 60.392 127.342 58.856 127.342 56.744C127.342 53.864 124.846 51.368 121.87 51.368C118.894 51.368 116.398 53.864 116.398 56.744C116.398 58.856 117.262 60.392 119.47 61.64C120.046 61.928 121.102 62.312 121.87 62.888ZM122.83 46.184H123.79C123.79 45.512 123.598 45.128 123.31 44.936C123.022 45.128 122.83 45.512 122.83 46.184ZM118.606 47.048V46.184H118.99V45.416C118.99 45.128 118.894 44.936 118.606 44.936V43.592H119.182C118.894 43.016 118.51 42.152 118.51 41.384C118.51 40.424 118.99 39.752 120.43 38.888C121.198 38.408 121.486 38.12 121.582 37.736C121.39 37.544 121.486 37.448 121.678 37.256V37.16C121.486 37.064 121.486 36.776 121.774 36.68C121.678 36.68 121.39 36.488 121.39 36.2C121.39 36.008 121.486 35.816 121.678 35.72L121.87 34.568L122.062 35.72C122.254 35.816 122.35 36.008 122.35 36.2C122.35 36.488 122.062 36.68 121.966 36.68C122.254 36.776 122.254 37.064 122.062 37.16V37.256C122.254 37.448 122.35 37.544 122.158 37.736C122.254 38.12 122.542 38.408 123.31 38.888C124.75 39.752 125.23 40.424 125.23 41.384C125.23 42.152 124.846 43.016 124.558 43.592H125.134V44.936C124.846 44.936 124.75 45.128 124.75 45.416V46.184H125.134V47.048C129.262 48.488 132.238 52.424 132.238 56.936C132.238 61.064 129.646 64.424 126.19 66.152C123.886 67.304 122.638 67.688 122.062 69.608C121.966 69.896 121.966 69.8 121.87 69.896C121.774 69.8 121.774 69.896 121.678 69.608C121.102 67.688 119.854 67.4 117.55 66.152C116.878 65.768 116.206 65.384 115.726 65H98.7342V64.136H116.014C116.494 64.52 117.07 64.904 117.838 65.288C119.47 66.152 121.006 66.728 121.87 67.88C122.734 66.728 124.27 66.152 125.902 65.288C128.974 63.752 131.374 60.68 131.374 56.936C131.374 51.752 127.054 47.432 121.87 47.432C116.686 47.432 112.366 51.752 112.366 56.936C112.366 58.088 112.558 59.144 112.942 60.104H98.7342V59.24H111.79C111.598 58.472 111.502 57.704 111.502 56.936C111.502 52.424 114.478 48.392 118.606 47.048ZM119.95 46.184H120.91C120.91 45.512 120.718 45.128 120.43 44.936C120.142 45.128 119.95 45.512 119.95 46.184ZM121.39 46.184H122.35C122.35 45.512 122.158 45.128 121.87 44.936C121.582 45.128 121.39 45.512 121.39 46.184ZM157.612 43.976C157.612 43.304 157.42 42.92 157.132 42.728C156.844 42.92 156.652 43.304 156.652 43.976H157.612ZM154.732 43.976C154.732 43.304 154.54 42.92 154.252 42.728C153.964 42.92 153.772 43.304 153.772 43.976H154.732ZM156.172 43.976C156.172 43.304 155.98 42.92 155.692 42.728C155.404 42.92 155.212 43.304 155.212 43.976H156.172ZM156.844 65.384C156.844 70.856 151.66 74.504 147.148 73.352C151.084 73.256 154.54 70.568 154.54 65.384V50.216C154.54 47.72 154.828 46.856 155.692 46.376C156.556 46.856 156.844 47.72 156.844 50.216V65.384ZM153.676 65.288C153.676 70.856 149.644 72.872 146.284 72.872C145.9 72.872 144.748 72.872 143.884 72.584C145.42 73.736 147.052 74.216 148.588 74.216C153.196 74.216 157.708 70.952 157.708 65.288V49.832C157.708 47.144 157.036 45.992 155.692 45.32C154.348 45.992 153.676 47.144 153.676 49.832V65.288ZM158.572 65.192C158.572 73.544 149.836 77.48 143.788 73.832C139.276 71.048 137.644 71.816 136.108 72.584C136.3 71.144 137.548 70.28 138.796 70.376C138.988 69.704 139.564 69.128 140.62 69.416C141.004 69.512 142.06 70.28 142.348 70.472C145.132 72.584 152.812 72.968 152.812 65.192V45.992C152.812 45.608 152.716 45.416 152.428 45.32V43.976H152.812V43.208C152.812 42.92 152.716 42.728 152.428 42.728V41.384H153.004C152.716 40.808 152.332 39.944 152.332 39.176C152.332 38.216 152.812 37.544 154.252 36.68C155.02 36.2 155.308 35.912 155.404 35.528C155.212 35.336 155.308 35.24 155.5 35.048V34.952C155.308 34.856 155.308 34.568 155.596 34.472C155.5 34.472 155.212 34.28 155.212 33.992C155.212 33.8 155.308 33.608 155.5 33.512L155.692 32.36L155.884 33.512C156.076 33.608 156.172 33.8 156.172 33.992C156.172 34.28 155.884 34.472 155.788 34.472C156.076 34.568 156.076 34.856 155.884 34.952V35.048C156.076 35.24 156.172 35.336 155.98 35.528C156.076 35.912 156.364 36.2 157.132 36.68C158.572 37.544 159.052 38.216 159.052 39.176C159.052 39.944 158.668 40.808 158.38 41.384H158.956V42.728C158.668 42.728 158.572 42.92 158.572 43.208V43.976H158.956V45.32C158.668 45.416 158.572 45.608 158.572 45.992V65.192ZM194.643 43.976C194.643 43.304 194.451 42.92 194.163 42.728C193.875 42.92 193.683 43.304 193.683 43.976H194.643ZM191.763 43.976C191.763 43.304 191.571 42.92 191.283 42.728C190.995 42.92 190.803 43.304 190.803 43.976H191.763ZM193.203 43.976C193.203 43.304 193.011 42.92 192.723 42.728C192.435 42.92 192.243 43.304 192.243 43.976H193.203ZM193.875 65.384C193.875 70.856 188.691 74.504 184.179 73.352C188.115 73.256 191.571 70.568 191.571 65.384V50.216C191.571 47.72 191.859 46.856 192.723 46.376C193.587 46.856 193.875 47.72 193.875 50.216V65.384ZM190.707 65.288C190.707 70.856 186.675 72.872 183.315 72.872C182.931 72.872 181.779 72.872 180.915 72.584C182.451 73.736 184.083 74.216 185.619 74.216C190.227 74.216 194.739 70.952 194.739 65.288V49.832C194.739 47.144 194.067 45.992 192.723 45.32C191.379 45.992 190.707 47.144 190.707 49.832V65.288ZM195.603 65.192C195.603 73.544 186.867 77.48 180.819 73.832C176.307 71.048 174.675 71.816 173.139 72.584C173.331 71.144 174.579 70.28 175.827 70.376C176.019 69.704 176.595 69.128 177.651 69.416C178.035 69.512 179.091 70.28 179.379 70.472C182.163 72.584 189.843 72.968 189.843 65.192V45.992C189.843 45.608 189.747 45.416 189.459 45.32V43.976H189.843V43.208C189.843 42.92 189.747 42.728 189.459 42.728V41.384H190.035C189.747 40.808 189.363 39.944 189.363 39.176C189.363 38.216 189.843 37.544 191.283 36.68C192.051 36.2 192.339 35.912 192.435 35.528C192.243 35.336 192.339 35.24 192.531 35.048V34.952C192.339 34.856 192.339 34.568 192.627 34.472C192.531 34.472 192.243 34.28 192.243 33.992C192.243 33.8 192.339 33.608 192.531 33.512L192.723 32.36L192.915 33.512C193.107 33.608 193.203 33.8 193.203 33.992C193.203 34.28 192.915 34.472 192.819 34.472C193.107 34.568 193.107 34.856 192.915 34.952V35.048C193.107 35.24 193.203 35.336 193.011 35.528C193.107 35.912 193.395 36.2 194.163 36.68C195.603 37.544 196.083 38.216 196.083 39.176C196.083 39.944 195.699 40.808 195.411 41.384H195.987V42.728C195.699 42.728 195.603 42.92 195.603 43.208V43.976H195.987V45.32C195.699 45.416 195.603 45.608 195.603 45.992V65.192ZM204.271 12.584H205.231C205.231 11.912 205.039 11.528 204.751 11.336C204.463 11.528 204.271 11.912 204.271 12.584ZM201.295 64.136H206.191V65H200.431V14.6C200.431 14.216 200.335 14.024 200.047 13.928V12.584H200.431V11.816C200.431 11.528 200.335 11.336 200.047 11.336V9.992H200.623C200.335 9.41599 199.951 8.552 199.951 7.784C199.951 6.824 200.431 6.152 201.871 5.288C202.639 4.808 202.927 4.51999 203.023 4.136C202.831 3.944 202.927 3.848 203.119 3.65599V3.56C202.927 3.464 202.927 3.17599 203.215 3.08C203.119 3.08 202.831 2.888 202.831 2.6C202.831 2.408 202.927 2.216 203.119 2.12L203.311 0.967995L203.503 2.12C203.695 2.216 203.791 2.408 203.791 2.6C203.791 2.888 203.503 3.08 203.407 3.08C203.695 3.17599 203.695 3.464 203.503 3.56V3.65599C203.695 3.848 203.791 3.944 203.599 4.136C203.695 4.51999 203.983 4.808 204.751 5.288C206.191 6.152 206.671 6.824 206.671 7.784C206.671 8.552 206.287 9.41599 205.999 9.992H206.575V11.336C206.287 11.336 206.191 11.528 206.191 11.816V12.584H206.575V13.928C206.287 14.024 206.191 14.216 206.191 14.6V60.104H205.327V18.44C205.327 15.752 204.655 14.6 203.311 13.928C201.967 14.6 201.295 15.752 201.295 18.44V64.136ZM206.191 63.272H202.159V18.824C202.159 16.328 202.447 15.464 203.311 14.984C204.175 15.464 204.463 16.328 204.463 18.824V60.968H206.191V63.272ZM201.391 12.584H202.351C202.351 11.912 202.159 11.528 201.871 11.336C201.583 11.528 201.391 11.912 201.391 12.584ZM202.831 12.584H203.791C203.791 11.912 203.599 11.528 203.311 11.336C203.023 11.528 202.831 11.912 202.831 12.584ZM222.22 60.968H258.124V56.168C258.124 52.904 256.396 51.08 252.94 51.08H227.116C223.66 51.08 222.22 52.904 222.22 56.168V60.968ZM223.948 59.24H256.396V56.168C256.396 54.056 255.244 52.808 252.94 52.808H227.116C224.812 52.808 223.948 54.056 223.948 56.168V59.24ZM257.26 60.104H223.084V56.168C223.084 53.48 224.236 51.944 227.116 51.944H252.94C255.82 51.944 257.26 53.48 257.26 56.168V60.104ZM262.156 60.104H261.292V56.648C261.292 50.792 258.316 47.912 252.46 47.912H226.924C225.004 47.912 224.236 48.104 223.084 48.68V18.44C223.084 15.752 222.412 14.6 221.068 13.928C219.724 14.6 219.052 15.752 219.052 18.44V60.104H205.515V59.24H218.188V14.6C218.188 14.216 218.092 14.024 217.804 13.928V12.584H218.188V11.816C218.188 11.528 218.092 11.336 217.804 11.336V9.992H218.38C218.092 9.41599 217.708 8.552 217.708 7.784C217.708 6.824 218.188 6.152 219.628 5.288C220.396 4.808 220.684 4.51999 220.78 4.136C220.588 3.944 220.684 3.848 220.876 3.65599V3.56C220.684 3.464 220.684 3.17599 220.972 3.08C220.876 3.08 220.588 2.888 220.588 2.6C220.588 2.408 220.684 2.216 220.876 2.12L221.068 0.967995L221.26 2.12C221.452 2.216 221.548 2.408 221.548 2.6C221.548 2.888 221.26 3.08 221.164 3.08C221.452 3.17599 221.452 3.464 221.26 3.56V3.65599C221.452 3.848 221.548 3.944 221.356 4.136C221.452 4.51999 221.74 4.808 222.508 5.288C223.948 6.152 224.428 6.824 224.428 7.784C224.428 8.552 224.044 9.41599 223.756 9.992H224.332V11.336C224.044 11.336 223.948 11.528 223.948 11.816V12.584H224.332V13.928C224.044 14.024 223.948 14.216 223.948 14.6V47.432C224.908 47.144 225.484 47.048 226.924 47.048H252.46C258.892 47.048 262.156 50.216 262.156 56.648V60.104ZM205.515 64.136H262.156V65H205.515V64.136ZM222.028 12.584H222.988C222.988 11.912 222.796 11.528 222.508 11.336C222.22 11.528 222.028 11.912 222.028 12.584ZM260.427 60.968H262.156V63.272H205.515V60.968H219.916V18.824C219.916 16.328 220.204 15.464 221.068 14.984C221.932 15.464 222.22 16.328 222.22 18.824V50.408C223.372 49.256 224.428 48.776 226.924 48.776H252.46C257.74 48.776 260.427 51.368 260.427 56.648V60.968ZM219.148 12.584H220.108C220.108 11.912 219.916 11.528 219.628 11.336C219.34 11.528 219.148 11.912 219.148 12.584ZM220.588 12.584H221.548C221.548 11.912 221.356 11.528 221.068 11.336C220.78 11.528 220.588 11.912 220.588 12.584ZM289.324 45.608C288.268 44.936 286.444 44.552 285.004 44.552C283.084 44.552 280.3 45.32 280.3 48.104C280.3 49.928 281.452 51.272 281.452 51.272H289.036V49.928C289.036 47.432 289.324 46.568 290.188 46.088C291.052 46.568 291.34 47.432 291.34 49.928V63.272H261.484V60.968H289.036V53.576H277.324C277.036 53.576 276.268 53.576 275.788 53.864C276.172 51.944 277.612 51.08 278.572 50.792C276.844 44.264 281.452 42.536 284.908 42.536C286.636 42.536 288.364 42.728 289.324 43.592C289.42 41.96 286.54 41.672 285.004 41.672C280.3 41.672 276.172 44.36 277.612 50.312C276.556 50.792 274.636 52.328 274.732 55.112C275.788 54.344 277.324 54.44 278.476 54.44H288.172V60.104H261.484V59.24H287.308V55.304H278.38C276.844 55.304 275.404 55.304 273.964 56.648C273.196 53.192 275.116 50.792 276.652 49.928C275.788 45.8 277.9 40.808 285.1 40.808C286.54 40.808 287.404 41.096 287.404 41.096C287.404 41.096 286.828 39.56 286.828 38.888C286.828 37.928 287.308 37.256 288.748 36.392C289.516 35.912 289.804 35.624 289.9 35.24C289.708 35.048 289.804 34.952 289.996 34.76V34.664C289.804 34.568 289.804 34.28 290.092 34.184C289.996 34.184 289.708 33.992 289.708 33.704C289.708 33.512 289.804 33.32 289.996 33.224L290.188 32.072L290.38 33.224C290.572 33.32 290.668 33.512 290.668 33.704C290.668 33.992 290.38 34.184 290.284 34.184C290.572 34.28 290.572 34.568 290.38 34.664V34.76C290.572 34.952 290.668 35.048 290.476 35.24C290.572 35.624 290.86 35.912 291.628 36.392C293.068 37.256 293.548 37.928 293.548 38.888C293.548 39.656 293.164 40.52 292.876 41.096H293.452V42.44C293.164 42.44 293.068 42.632 293.068 42.92V43.688H293.452V45.032C293.164 45.128 293.068 45.32 293.068 45.704V65H261.484V64.136H292.204V49.544C292.204 46.856 291.532 45.704 290.188 45.032C289.804 45.224 289.612 45.32 289.324 45.608ZM288.844 46.28C287.5 45.608 285.868 45.416 285.004 45.416C283.564 45.416 281.164 45.8 281.164 48.2C281.164 49.448 281.932 50.408 281.932 50.408H288.172V49.544C288.172 47.912 288.364 47.048 288.844 46.28ZM291.148 43.688H292.108C292.108 43.016 291.916 42.632 291.628 42.44C291.34 42.632 291.148 43.016 291.148 43.688ZM289.708 43.688H290.668C290.668 43.016 290.476 42.632 290.188 42.44C289.9 42.632 289.708 43.016 289.708 43.688ZM287.308 49.544H282.412C282.412 49.544 282.028 48.968 282.028 48.2C282.028 47.144 282.7 46.28 285.1 46.28C286.444 46.28 287.404 46.664 287.692 46.76C287.212 47.624 287.308 49.544 287.308 49.544ZM280.108 35.72C281.932 35.72 283.276 34.376 283.276 32.552C283.276 31.304 282.7 30.44 281.548 29.864C281.74 30.248 281.836 30.536 281.836 30.824C281.836 31.784 281.068 32.552 280.108 32.552C279.148 32.552 278.38 31.784 278.38 30.824C278.38 30.536 278.476 30.248 278.668 29.864C277.516 30.44 276.94 31.304 276.94 32.552C276.94 34.376 278.284 35.72 280.108 35.72ZM298.702 64.136H302.734V18.44C302.734 15.752 302.062 14.6 300.718 13.928C299.374 14.6 298.702 15.752 298.702 18.44V64.136ZM302.638 12.584C302.638 11.912 302.446 11.528 302.158 11.336C301.87 11.528 301.678 11.912 301.678 12.584H302.638ZM303.598 65H297.838V14.6C297.838 14.216 297.742 14.024 297.454 13.928V12.584H297.838V11.816C297.838 11.528 297.742 11.336 297.454 11.336V9.992H298.03C297.742 9.41599 297.358 8.552 297.358 7.784C297.358 6.824 297.838 6.152 299.278 5.288C300.046 4.808 300.334 4.51999 300.43 4.136C300.238 3.944 300.334 3.848 300.526 3.65599V3.56C300.334 3.464 300.334 3.17599 300.622 3.08C300.526 3.08 300.238 2.888 300.238 2.6C300.238 2.408 300.334 2.216 300.526 2.12L300.718 0.967995L300.91 2.12C301.102 2.216 301.198 2.408 301.198 2.6C301.198 2.888 300.91 3.08 300.814 3.08C301.102 3.17599 301.102 3.464 300.91 3.56V3.65599C301.102 3.848 301.198 3.944 301.006 4.136C301.102 4.51999 301.39 4.808 302.158 5.288C303.598 6.152 304.078 6.824 304.078 7.784C304.078 8.552 303.694 9.41599 303.406 9.992H303.982V11.336C303.694 11.336 303.598 11.528 303.598 11.816V12.584H303.982V13.928C303.694 14.024 303.598 14.216 303.598 14.6V65ZM301.87 63.272H299.566V18.824C299.566 16.328 299.854 15.464 300.718 14.984C301.582 15.464 301.87 16.328 301.87 18.824V63.272ZM299.758 12.584C299.758 11.912 299.566 11.528 299.278 11.336C298.99 11.528 298.798 11.912 298.798 12.584H299.758ZM301.198 12.584C301.198 11.912 301.006 11.528 300.718 11.336C300.43 11.528 300.238 11.912 300.238 12.584H301.198ZM297.646 70.664C297.646 70.472 297.454 70.28 297.454 70.28C297.454 70.28 297.262 70.472 297.262 70.664H297.646ZM294.861 77.576H306.19C306.862 77.576 307.15 77.672 307.342 77.768C307.438 77.096 307.246 76.52 306.382 76.328C306.766 75.08 306.478 74.312 305.614 73.928C305.71 74.6 305.806 76.328 304.462 76.328H301.966C298.99 76.328 298.03 74.504 298.03 72.584C298.03 71.72 297.838 71.336 297.358 71.048C296.974 71.336 296.782 71.624 296.782 72.488C296.782 73.928 297.166 75.272 298.222 76.328H294.861V77.576ZM299.278 69.512C299.758 69.224 300.526 69.032 301.294 69.032C301.87 69.032 302.446 69.224 303.022 69.512C303.406 69.704 304.174 69.896 304.558 69.704C304.078 69.416 303.886 69.032 303.406 68.84C303.118 68.744 303.118 68.744 303.022 68.456C302.83 67.88 302.446 67.496 301.966 67.496C301.966 68.072 301.582 68.552 300.526 68.84C300.334 68.936 299.662 69.032 299.278 69.512ZM297.454 67.688C297.55 67.688 297.55 67.784 297.454 67.88C297.55 67.976 297.55 68.072 297.454 68.072C297.454 68.168 297.55 68.264 297.838 68.36C298.222 68.552 298.414 68.84 298.414 69.224C298.414 69.224 298.414 69.416 298.414 69.512C298.894 68.84 300.142 68.648 300.43 68.552C301.773 68.264 301.773 67.496 301.39 67.304C302.158 67.016 303.022 67.4 303.31 68.36C303.406 68.552 303.406 68.552 303.598 68.648C304.27 68.84 304.654 69.608 305.134 69.8C304.846 69.992 303.982 70.28 302.83 69.704C300.622 68.552 298.318 70.088 298.318 72.872C298.318 74.792 299.566 76.04 301.966 76.04H304.462C305.518 76.04 305.518 74.312 305.134 73.448C306.574 73.832 307.15 74.696 306.766 76.136C307.822 76.52 307.918 77.864 307.246 78.44C307.246 78.056 306.958 77.864 306.19 77.864H294.573V76.04H297.55C296.59 74.696 296.494 73.544 296.494 72.104V71.336C296.494 71.24 296.494 71.048 296.398 71.048V70.664H296.494V70.376C296.494 70.28 296.398 70.28 296.398 70.28V69.896H296.59C296.398 69.704 296.302 69.416 296.302 69.224C296.302 68.84 296.494 68.552 296.878 68.36C297.166 68.264 297.358 68.168 297.358 68.072C297.262 68.072 297.262 67.976 297.358 67.88C297.262 67.784 297.262 67.688 297.358 67.688C297.358 67.688 297.166 67.592 297.358 67.4L297.454 67.016V67.4C297.646 67.496 297.454 67.784 297.454 67.688ZM304.462 76.616C305.614 76.616 305.998 75.656 305.902 74.408C306.19 74.6 306.478 75.368 305.998 76.52C306.766 76.616 307.054 76.904 307.054 77.384C306.862 77.288 306.574 77.288 306.19 77.288H295.149V76.616H298.99C297.646 75.56 297.07 74.216 297.07 72.584C297.07 72.008 297.07 71.624 297.358 71.432C297.646 71.624 297.742 72.008 297.742 72.584C297.742 74.504 298.798 76.616 301.966 76.616H304.462ZM302.254 67.88C302.446 67.976 302.638 68.168 302.734 68.552C302.83 68.84 302.83 68.936 303.31 69.128C303.598 69.224 303.886 69.512 303.886 69.512C303.31 69.416 303.118 69.224 302.638 69.032C302.062 68.744 301.486 68.744 301.486 68.744C301.486 68.744 302.062 68.552 302.254 67.88ZM298.126 70.664C298.126 70.472 297.934 70.28 297.934 70.28C297.934 70.28 297.742 70.472 297.742 70.664H298.126ZM297.166 70.664C297.166 70.472 296.974 70.28 296.974 70.28C296.974 70.28 296.782 70.472 296.782 70.664H297.166ZM329.786 59.24V46.952C327.578 47.048 325.37 49.256 325.466 53.096C325.562 55.592 326.81 58.76 329.786 59.24ZM335.546 64.136V65H322.586C322.202 65 319.61 64.712 318.362 66.248C317.594 63.176 319.418 60.488 321.338 59.528C320.282 57.224 319.802 55.016 319.802 53C319.802 48.872 322.106 42.92 327.77 42.92C328.634 42.92 329.594 43.112 329.978 43.304C329.69 42.728 329.306 41.864 329.306 41.192C329.306 40.232 329.786 39.56 331.226 38.696C331.994 38.216 332.282 37.928 332.378 37.544C332.186 37.352 332.282 37.256 332.474 37.064V36.968C332.282 36.872 332.282 36.584 332.57 36.488C332.474 36.488 332.186 36.296 332.186 36.008C332.186 35.816 332.282 35.624 332.474 35.528L332.666 34.376L332.858 35.528C333.05 35.624 333.146 35.816 333.146 36.008C333.146 36.296 332.858 36.488 332.762 36.488C333.05 36.584 333.05 36.872 332.858 36.968V37.064C333.05 37.256 333.146 37.352 332.954 37.544C333.05 37.928 333.338 38.216 334.106 38.696C335.546 39.56 336.026 40.232 336.026 41.192C336.026 41.96 335.642 42.824 335.354 43.4H335.93V44.744C335.642 44.744 335.546 44.936 335.546 45.224V45.992H335.93V47.336C335.642 47.432 335.546 47.624 335.546 48.008V60.104H334.682V51.848C334.682 49.16 334.01 48.008 332.666 47.336C331.322 48.008 330.65 49.16 330.65 51.848V60.104C326.426 60.104 324.602 56.264 324.602 53.096C324.602 47.048 328.826 45.8 331.61 45.992C331.322 44.36 329.306 43.688 327.866 43.688C323.738 43.688 320.666 47.336 320.666 53.096C320.666 55.016 321.242 57.704 322.586 60.008C320.474 60.68 319.034 62.792 319.034 64.808C320.186 64.04 321.818 64.136 322.298 64.136H335.546ZM335.546 60.968V63.272H322.01C321.338 63.272 320.57 63.368 320.09 63.56C320.666 61.544 322.97 60.584 323.738 60.392C322.778 58.664 321.53 56.072 321.53 53.192C321.53 49.544 322.97 44.456 327.962 44.456C328.826 44.456 329.69 44.744 330.458 45.32C327.578 45.32 323.738 47.432 323.738 53.096C323.738 56.456 325.274 60.968 331.514 60.968V52.232C331.514 49.736 331.802 48.872 332.666 48.392C333.53 48.872 333.818 49.736 333.818 52.232V60.968H335.546ZM333.626 45.992H334.586C334.586 45.32 334.394 44.936 334.106 44.744C333.818 44.936 333.626 45.32 333.626 45.992ZM332.186 45.992H333.146C333.146 45.32 332.954 44.936 332.666 44.744C332.378 44.936 332.186 45.32 332.186 45.992ZM332.57 30.152C334.394 30.152 335.738 28.808 335.738 26.984C335.738 25.736 335.162 24.872 334.01 24.296C334.202 24.68 334.298 24.968 334.298 25.256C334.298 26.216 333.53 26.984 332.57 26.984C331.61 26.984 330.842 26.216 330.842 25.256C330.842 24.968 330.938 24.68 331.13 24.296C329.978 24.872 329.402 25.736 329.402 26.984C329.402 28.808 330.746 30.152 332.57 30.152ZM324.314 30.152C326.138 30.152 327.482 28.808 327.482 26.984C327.482 25.736 326.906 24.872 325.754 24.296C325.946 24.68 326.042 24.968 326.042 25.256C326.042 26.216 325.274 26.984 324.314 26.984C323.354 26.984 322.586 26.216 322.586 25.256C322.586 24.968 322.682 24.68 322.874 24.296C321.722 24.872 321.146 25.736 321.146 26.984C321.146 28.808 322.49 30.152 324.314 30.152ZM365.515 60.968H368.395V63.272H363.595C363.019 63.752 362.347 64.136 361.675 64.52C360.427 65.192 359.083 65.672 358.027 66.536C356.971 65.672 355.531 65.192 354.379 64.52C353.707 64.136 353.131 63.752 352.555 63.272H334.89V60.968H350.443C349.771 59.816 349.387 58.376 349.387 56.936C349.387 52.232 353.323 48.296 358.027 48.296C362.731 48.296 366.667 52.232 366.667 56.936C366.667 58.472 366.187 59.816 365.515 60.968ZM358.027 64.04C358.603 63.272 359.659 62.984 360.523 62.504C363.211 61.16 364.363 59.24 364.363 56.744C364.363 53.384 361.483 50.504 358.027 50.504C354.571 50.504 351.691 53.384 351.691 56.744C351.691 59.24 352.843 61.16 355.531 62.504C356.395 62.984 357.451 63.272 358.027 64.04ZM358.027 52.232C360.523 52.232 362.635 54.344 362.635 56.744C362.635 58.568 361.867 59.816 360.043 60.872C359.179 61.352 358.411 61.544 358.027 61.928C357.643 61.544 356.875 61.352 356.011 60.872C354.187 59.816 353.419 58.568 353.419 56.744C353.419 54.344 355.531 52.232 358.027 52.232ZM358.027 62.888C358.795 62.312 359.851 61.928 360.427 61.64C362.635 60.392 363.499 58.856 363.499 56.744C363.499 53.864 361.003 51.368 358.027 51.368C355.051 51.368 352.555 53.864 352.555 56.744C352.555 58.856 353.419 60.392 355.627 61.64C356.203 61.928 357.259 62.312 358.027 62.888ZM358.987 46.184H359.947C359.947 45.512 359.755 45.128 359.467 44.936C359.179 45.128 358.987 45.512 358.987 46.184ZM368.395 65H364.171C363.691 65.384 363.115 65.768 362.347 66.152C360.043 67.304 358.795 67.688 358.219 69.608C358.123 69.896 358.123 69.8 358.027 69.896C357.931 69.8 357.931 69.896 357.835 69.608C357.259 67.688 356.011 67.4 353.707 66.152C353.035 65.768 352.363 65.384 351.883 65H334.89V64.136H352.171C352.651 64.52 353.227 64.904 353.995 65.288C355.627 66.152 357.163 66.728 358.027 67.88C358.891 66.728 360.331 66.152 362.059 65.288C362.827 64.904 363.211 64.616 363.883 64.136H368.395V65ZM368.107 59.24H368.395V60.104H366.955C367.339 59.144 367.531 58.088 367.531 56.936C367.531 51.752 363.211 47.432 358.027 47.432C352.843 47.432 348.523 51.752 348.523 56.936C348.523 58.088 348.715 59.144 349.099 60.104H334.89V59.24H347.947C347.755 58.472 347.659 57.704 347.659 56.936C347.659 52.424 350.635 48.392 354.763 47.048V46.184H355.147V45.416C355.147 45.128 355.051 44.936 354.763 44.936V43.592H355.339C355.051 43.016 354.667 42.152 354.667 41.384C354.667 40.424 355.147 39.752 356.587 38.888C357.355 38.408 357.643 38.12 357.739 37.736C357.547 37.544 357.643 37.448 357.835 37.256V37.16C357.643 37.064 357.643 36.776 357.931 36.68C357.835 36.68 357.547 36.488 357.547 36.2C357.547 36.008 357.643 35.816 357.835 35.72L358.027 34.568L358.219 35.72C358.411 35.816 358.507 36.008 358.507 36.2C358.507 36.488 358.219 36.68 358.123 36.68C358.411 36.776 358.411 37.064 358.219 37.16V37.256C358.411 37.448 358.507 37.544 358.315 37.736C358.411 38.12 358.699 38.408 359.467 38.888C360.906 39.752 361.387 40.424 361.387 41.384C361.387 42.152 361.003 43.016 360.715 43.592H361.291V44.936C361.003 44.936 360.906 45.128 360.906 45.416V46.184H361.291V47.048C365.419 48.488 368.395 52.424 368.395 56.936C368.395 57.704 368.299 58.472 368.107 59.24ZM356.107 46.184H357.067C357.067 45.512 356.875 45.128 356.587 44.936C356.299 45.128 356.107 45.512 356.107 46.184ZM357.547 46.184H358.507C358.507 45.512 358.315 45.128 358.027 44.936C357.739 45.128 357.547 45.512 357.547 46.184ZM384.407 43.976H385.367C385.367 43.304 385.175 42.92 384.887 42.728C384.599 42.92 384.407 43.304 384.407 43.976ZM381.527 43.976H382.487C382.487 43.304 382.295 42.92 382.007 42.728C381.719 42.92 381.527 43.304 381.527 43.976ZM382.967 43.976H383.927C383.927 43.304 383.735 42.92 383.447 42.728C383.159 42.92 382.967 43.304 382.967 43.976ZM367.703 63.272V60.968H382.295V50.216C382.295 47.72 382.583 46.856 383.447 46.376C384.311 46.856 384.599 47.72 384.599 50.216V63.272H367.703ZM367.703 65V64.136H385.463V49.832C385.463 47.144 384.791 45.992 383.447 45.32C382.103 45.992 381.431 47.144 381.431 49.832V60.104H367.703V59.24H380.567V45.992C380.567 45.608 380.471 45.416 380.183 45.32V43.976H380.567V43.208C380.567 42.92 380.471 42.728 380.183 42.728V41.384H380.759C380.471 40.808 380.087 39.944 380.087 39.176C380.087 38.216 380.567 37.544 382.007 36.68C382.775 36.2 383.063 35.912 383.159 35.528C382.967 35.336 383.063 35.24 383.255 35.048V34.952C383.063 34.856 383.063 34.568 383.351 34.472C383.255 34.472 382.967 34.28 382.967 33.992C382.967 33.8 383.063 33.608 383.255 33.512L383.447 32.36L383.639 33.512C383.831 33.608 383.927 33.8 383.927 33.992C383.927 34.28 383.639 34.472 383.543 34.472C383.831 34.568 383.831 34.856 383.639 34.952V35.048C383.831 35.24 383.927 35.336 383.735 35.528C383.831 35.912 384.119 36.2 384.887 36.68C386.327 37.544 386.807 38.216 386.807 39.176C386.807 39.944 386.423 40.808 386.135 41.384H386.711V42.728C386.423 42.728 386.327 42.92 386.327 43.208V43.976H386.711V45.32C386.423 45.416 386.327 45.608 386.327 45.992V65H367.703ZM379.799 22.856H379.415C379.415 22.664 379.607 22.472 379.607 22.472C379.607 22.472 379.799 22.664 379.799 22.856ZM377.015 29.768V28.52H380.375C379.319 27.464 378.935 26.12 378.935 24.68C378.935 23.816 379.127 23.528 379.511 23.24C379.991 23.528 380.183 23.912 380.183 24.776C380.183 26.696 381.143 28.52 384.119 28.52H386.615C387.959 28.52 387.863 26.792 387.767 26.12C388.631 26.504 388.919 27.272 388.535 28.52C389.303 28.616 389.687 29.384 389.495 30.056C389.303 29.864 389.015 29.768 388.343 29.768H377.015ZM381.431 21.704C381.815 21.224 382.487 21.128 382.679 21.032C383.735 20.744 384.119 20.264 384.023 19.688C384.503 19.688 384.983 20.072 385.175 20.648C385.271 20.936 385.367 20.936 385.559 21.032C386.039 21.224 386.231 21.608 386.711 21.896C386.327 22.088 385.559 21.896 385.175 21.704C384.599 21.416 384.023 21.224 383.447 21.224C382.679 21.224 381.911 21.416 381.431 21.704ZM379.607 19.88C379.607 19.976 379.799 19.688 379.607 19.592V19.208L379.511 19.592C379.319 19.784 379.511 19.88 379.511 19.88C379.415 19.88 379.415 19.976 379.511 20.072C379.415 20.168 379.415 20.264 379.511 20.264C379.511 20.36 379.319 20.456 379.031 20.552C378.647 20.744 378.455 21.032 378.455 21.416C378.455 21.608 378.551 21.896 378.743 22.088H378.551V22.472C378.551 22.472 378.647 22.472 378.647 22.568V22.856H378.551V23.24C378.647 23.24 378.647 23.432 378.647 23.528V24.296C378.647 25.736 378.743 26.888 379.703 28.232H376.727V30.056H388.343C389.111 30.056 389.399 30.248 389.399 30.632C390.071 30.056 389.975 28.712 388.919 28.328C389.303 26.888 388.727 26.024 387.287 25.64C387.671 26.504 387.671 28.232 386.615 28.232H384.119C381.719 28.232 380.471 26.984 380.471 25.064C380.471 22.28 382.775 20.744 384.887 21.896C386.039 22.472 386.999 22.184 387.287 21.992C386.807 21.8 386.423 21.128 385.847 20.84C385.655 20.744 385.559 20.744 385.463 20.552C385.175 19.592 384.215 19.208 383.543 19.496C383.831 19.688 383.927 20.456 382.583 20.744C382.295 20.84 381.047 21.032 380.567 21.704C380.567 21.608 380.567 21.416 380.567 21.416C380.567 21.032 380.375 20.744 379.991 20.552C379.703 20.456 379.607 20.36 379.607 20.264C379.703 20.264 379.703 20.168 379.607 20.072C379.703 19.976 379.703 19.88 379.607 19.88ZM386.615 28.808H384.119C380.951 28.808 379.895 26.696 379.895 24.776C379.895 24.2 379.799 23.816 379.511 23.624C379.223 23.816 379.223 24.2 379.223 24.776C379.223 26.408 379.799 27.752 381.143 28.808H377.303V29.48H388.343C388.727 29.48 389.015 29.48 389.207 29.576C389.207 29.096 388.919 28.808 388.151 28.712C388.631 27.56 388.343 26.792 388.055 26.6C388.151 27.848 387.767 28.808 386.615 28.808ZM384.311 20.072C384.215 20.648 383.639 20.936 383.639 20.936C384.887 21.032 385.367 21.608 386.039 21.704C386.039 21.704 385.559 21.32 385.271 21.224C385.079 21.128 384.983 21.032 384.887 20.744C384.791 20.456 384.503 20.072 384.311 20.072ZM380.279 22.856H379.895C379.895 22.664 380.087 22.472 380.087 22.472C380.087 22.472 380.279 22.664 380.279 22.856ZM379.319 22.856H378.935C378.935 22.664 379.127 22.472 379.127 22.472C379.127 22.472 379.319 22.664 379.319 22.856ZM398.053 12.584H399.013C399.013 11.912 398.821 11.528 398.533 11.336C398.245 11.528 398.053 11.912 398.053 12.584ZM395.077 64.136H399.973V65H394.213V14.6C394.213 14.216 394.117 14.024 393.829 13.928V12.584H394.213V11.816C394.213 11.528 394.117 11.336 393.829 11.336V9.992H394.405C394.117 9.41599 393.733 8.552 393.733 7.784C393.733 6.824 394.213 6.152 395.653 5.288C396.421 4.808 396.709 4.51999 396.805 4.136C396.613 3.944 396.709 3.848 396.901 3.65599V3.56C396.709 3.464 396.709 3.17599 396.997 3.08C396.901 3.08 396.613 2.888 396.613 2.6C396.613 2.408 396.709 2.216 396.901 2.12L397.093 0.967995L397.285 2.12C397.477 2.216 397.573 2.408 397.573 2.6C397.573 2.888 397.285 3.08 397.189 3.08C397.477 3.17599 397.477 3.464 397.285 3.56V3.65599C397.477 3.848 397.573 3.944 397.381 4.136C397.477 4.51999 397.765 4.808 398.533 5.288C399.973 6.152 400.453 6.824 400.453 7.784C400.453 8.552 400.069 9.41599 399.781 9.992H400.357V11.336C400.069 11.336 399.973 11.528 399.973 11.816V12.584H400.357V13.928C400.069 14.024 399.973 14.216 399.973 14.6V60.104H399.109V18.44C399.109 15.752 398.437 14.6 397.093 13.928C395.749 14.6 395.077 15.752 395.077 18.44V64.136ZM399.973 63.272H395.941V18.824C395.941 16.328 396.229 15.464 397.093 14.984C397.957 15.464 398.245 16.328 398.245 18.824V60.968H399.973V63.272ZM395.173 12.584H396.133C396.133 11.912 395.941 11.528 395.653 11.336C395.365 11.528 395.173 11.912 395.173 12.584ZM396.613 12.584H397.573C397.573 11.912 397.381 11.528 397.093 11.336C396.805 11.528 396.613 11.912 396.613 12.584ZM427.137 45.608C426.081 44.936 424.257 44.552 422.817 44.552C420.897 44.552 418.113 45.32 418.113 48.104C418.113 49.928 419.265 51.272 419.265 51.272H426.849V49.928C426.849 47.432 427.137 46.568 428.001 46.088C428.865 46.568 429.153 47.432 429.153 49.928V63.272H399.297V60.968H426.849V53.576H415.137C414.849 53.576 414.081 53.576 413.601 53.864C413.985 51.944 415.425 51.08 416.385 50.792C414.657 44.264 419.265 42.536 422.721 42.536C424.449 42.536 426.177 42.728 427.137 43.592C427.233 41.96 424.353 41.672 422.817 41.672C418.113 41.672 413.985 44.36 415.425 50.312C414.369 50.792 412.449 52.328 412.545 55.112C413.601 54.344 415.137 54.44 416.289 54.44H425.985V60.104H399.297V59.24H425.121V55.304H416.193C414.657 55.304 413.217 55.304 411.777 56.648C411.009 53.192 412.929 50.792 414.465 49.928C413.601 45.8 415.713 40.808 422.913 40.808C424.353 40.808 425.217 41.096 425.217 41.096C425.217 41.096 424.641 39.56 424.641 38.888C424.641 37.928 425.121 37.256 426.561 36.392C427.329 35.912 427.617 35.624 427.713 35.24C427.521 35.048 427.617 34.952 427.809 34.76V34.664C427.617 34.568 427.617 34.28 427.905 34.184C427.809 34.184 427.521 33.992 427.521 33.704C427.521 33.512 427.617 33.32 427.809 33.224L428.001 32.072L428.193 33.224C428.385 33.32 428.481 33.512 428.481 33.704C428.481 33.992 428.193 34.184 428.097 34.184C428.385 34.28 428.385 34.568 428.193 34.664V34.76C428.385 34.952 428.481 35.048 428.289 35.24C428.385 35.624 428.673 35.912 429.441 36.392C430.881 37.256 431.361 37.928 431.361 38.888C431.361 39.656 430.977 40.52 430.689 41.096H431.265V42.44C430.977 42.44 430.881 42.632 430.881 42.92V43.688H431.265V45.032C430.977 45.128 430.881 45.32 430.881 45.704V65H399.297V64.136H430.017V49.544C430.017 46.856 429.345 45.704 428.001 45.032C427.617 45.224 427.425 45.32 427.137 45.608ZM426.657 46.28C425.313 45.608 423.681 45.416 422.817 45.416C421.377 45.416 418.977 45.8 418.977 48.2C418.977 49.448 419.745 50.408 419.745 50.408H425.985V49.544C425.985 47.912 426.177 47.048 426.657 46.28ZM428.961 43.688H429.921C429.921 43.016 429.729 42.632 429.441 42.44C429.153 42.632 428.961 43.016 428.961 43.688ZM427.521 43.688H428.481C428.481 43.016 428.289 42.632 428.001 42.44C427.713 42.632 427.521 43.016 427.521 43.688ZM425.121 49.544H420.225C420.225 49.544 419.841 48.968 419.841 48.2C419.841 47.144 420.513 46.28 422.913 46.28C424.257 46.28 425.217 46.664 425.505 46.76C425.025 47.624 425.121 49.544 425.121 49.544ZM422.433 32.552C424.257 32.552 425.601 31.208 425.601 29.384C425.601 28.136 425.025 27.272 423.873 26.696C424.065 27.08 424.161 27.368 424.161 27.656C424.161 28.616 423.393 29.384 422.433 29.384C421.473 29.384 420.705 28.616 420.705 27.656C420.705 27.368 420.801 27.08 420.993 26.696C419.841 27.272 419.265 28.136 419.265 29.384C419.265 31.208 420.609 32.552 422.433 32.552ZM414.177 32.552C416.001 32.552 417.345 31.208 417.345 29.384C417.345 28.136 416.769 27.272 415.617 26.696C415.809 27.08 415.905 27.368 415.905 27.656C415.905 28.616 415.137 29.384 414.177 29.384C413.217 29.384 412.449 28.616 412.449 27.656C412.449 27.368 412.545 27.08 412.737 26.696C411.585 27.272 411.009 28.136 411.009 29.384C411.009 31.208 412.353 32.552 414.177 32.552Z" fill="#381112"/>
</svg>
