<svg width="356" height="150" viewBox="0 0 356 150" fill="none" xmlns="http://www.w3.org/2000/svg">
<g clip-path="url(#clip0_1081_415)">
<mask id="mask0_1081_415" style="mask-type:luminance" maskUnits="userSpaceOnUse" x="-46" y="-84" width="448" height="318">
<path d="M401.39 -83.308H-45.3896V233.207H401.39V-83.308Z" fill="white"/>
</mask>
<g mask="url(#mask0_1081_415)">
<path d="M280.319 55.0955C302.013 55.4517 322.211 49.571 341.401 39.8195C344.018 38.507 346.43 36.8178 348.56 34.8055C354.599 29.0312 357.783 22.1402 354.928 13.8562C352.094 5.42334 345.45 1.26539 336.826 0.228556C326.181 -1.06349 317.191 3.24334 308.838 9.17188C298.521 16.4669 290.635 26.0908 283.63 36.4751C281.332 39.8993 279.109 43.0363 274.683 43.9987C273.091 44.355 271.547 45.647 270.183 46.7636C267.375 49.0925 267.222 51.7244 270.183 53.6758C272.252 55.0157 271.775 55.9302 270.835 57.4722C267.121 63.9324 262.976 70.1906 259.967 76.9539C257.791 81.8403 254.204 83.7651 249.677 84.9296C244.901 86.1206 242.545 83.9884 243.786 79.2775C246.312 69.7068 252.585 62.8903 260.545 57.419C261.384 56.8607 262.546 56.2758 263.305 57.2648C264.112 58.3814 263.305 59.2162 262.345 60.051C260.041 61.9757 257.919 64.1079 255.743 66.1337C259.765 66.4102 262.796 64.714 265.375 62.1034C267.222 60.2317 268.156 57.9507 266.617 55.5687C265.024 53.0378 262.371 52.9846 259.787 53.8194C257.361 54.6329 255.286 56.127 253.344 57.7965C249.657 60.946 246.557 64.7267 244.19 68.9624C243.404 70.382 242.497 71.27 240.825 71.6475C235.62 72.8414 230.603 74.743 225.913 77.2996C225.202 77.6771 224.544 78.3896 223.509 77.6558C221.46 76.183 220.272 71.5996 221.514 69.3718C224.846 63.3156 234.988 58.4505 241.865 59.7692C243.808 60.152 245.049 59.2109 246.185 58.0198C246.817 57.3658 247.246 56.5045 246.488 55.6431C245.378 54.3723 243.914 54.7817 242.571 54.9306C233.799 56.0472 226.465 60.2477 219.868 65.8253C214.811 70.079 214.408 73.3968 218.048 79.0701C219.21 80.8726 218.781 81.6064 217.289 82.6964C214.923 84.4007 212.651 86.2344 210.486 88.1889C209.175 89.4065 209.149 90.8794 211.346 91.0283C216.328 91.4578 221.299 90.0825 225.356 87.1521C227.022 85.9611 227.983 84.3925 226.895 82.2391C226.491 81.4522 225.961 80.5642 227.096 79.9315C231.65 77.374 236.251 74.8697 241.558 73.551C241.106 76.1617 240.496 78.2354 240.395 80.3675C240.119 86.3173 245.554 89.8638 251.37 87.8114C252.585 87.3754 254.352 85.5517 254.984 86.8224C257.287 91.6078 258.396 87.2797 259.537 86.2907C265.401 81.2501 270.284 75.194 276.323 70.3395C277.766 69.2017 279.13 67.9096 281.63 67.3779C278.568 72.4398 275.41 76.7253 273.712 81.8138C272.979 84.0682 272.905 85.9664 274.773 87.7157C276.641 89.465 278.69 89.5129 280.786 88.6302C282.76 87.7955 284.633 86.6789 286.528 85.6899C288.046 90.2732 289.638 91.1133 294.138 89.4118C296.163 88.654 298.096 87.6694 299.901 86.4768C305.304 82.9158 310.095 78.5002 314.086 73.4021C312.898 76.5924 311.332 79.6338 310.695 82.9729C310.292 85.2273 310.472 87.4073 312.569 88.7525C314.665 90.0978 316.512 89.0024 318.157 87.6891C319.974 86.302 321.697 84.7957 323.315 83.1802C327.157 79.1286 330.845 74.9494 334.613 70.7968C334.969 71.1264 335.346 71.4295 335.728 71.7592C334.868 75.5343 332.745 78.9532 332.544 82.925C332.416 85.3071 333 87.2584 335.096 88.4707C337.421 89.7894 338.891 87.939 340.456 86.7267C341.417 85.9877 342.706 84.9508 341.847 83.5843C340.886 82.0902 339.899 83.7332 338.938 83.9884C337.978 84.2437 337.07 85.2539 336.158 84.3447C335.452 83.6322 336.083 82.6485 336.311 81.835C337.649 77.0231 339.979 72.6418 342.377 68.3084C343.539 66.2294 345.614 63.7517 343.062 61.9013C340.509 60.051 339.167 63.321 337.755 64.7619C331.79 70.8393 326.377 77.4538 319.754 82.8718C318.539 83.8608 317.048 85.9132 315.631 84.8764C314.039 83.712 315.429 81.532 316.061 79.9847C318.438 73.9339 322.031 68.5104 325.544 63.0657C326.605 61.4175 330.018 59.4661 327.237 57.52C324.812 55.8452 323.75 59.4448 322.206 60.9123C321.298 61.8269 321.091 63.975 319.399 63.5443C314.999 62.3798 310.196 64.2302 306.052 61.444C305.548 61.1421 304.966 60.9975 304.38 61.0288C303.794 61.06 303.23 61.2657 302.762 61.6195C301.169 62.8371 299.376 63.1402 297.455 63.1668C295.916 63.1668 294.117 64.1823 295.385 65.6498C297.327 67.9043 295.608 68.9198 294.674 70.3874C292.954 73.0459 290.906 75.6034 289.696 78.4906C288.253 81.9095 285.573 83.5099 282.564 84.903C281.502 85.3815 280.165 86.3705 279.024 85.2326C277.963 84.1692 278.775 82.824 279.151 81.6596C280.924 76.5658 283.678 72.0091 286.607 67.5215C287.345 66.3836 288.454 65.267 287.366 63.7995C286.204 62.1778 284.713 62.8371 283.222 63.2678C279.884 64.3312 277.055 66.2294 274.423 68.4626C271.313 71.1211 268.278 73.8541 265.221 76.5392C267.874 70.4139 271.138 64.714 274.147 58.8865C275.511 56.228 277.103 55.1646 280.314 55.2124M221.179 86.748C219.534 87.6094 217.889 88.4707 215.034 88.4495C217.109 86.8543 218.526 85.7378 219.99 84.6478C220.595 84.1905 221.328 83.712 221.885 84.5946C222.442 85.4772 222.113 86.2695 221.179 86.748ZM291.23 84.4936C293.72 78.6625 297.222 73.3196 301.573 68.7125C302.28 67.9148 303.143 67.2717 304.109 66.8234C305.075 66.3752 306.123 66.1313 307.187 66.1071C311.661 66.2081 312.595 67.3194 311.003 70.4884C307.235 77.9589 301.318 83.3557 293.91 87.1308C293.002 87.5881 291.665 88.3219 290.779 87.3063C289.993 86.4715 290.853 85.4081 291.23 84.4936ZM315.514 8.41154C321.734 4.46095 328.25 1.46743 335.919 2.53085C337.442 2.70907 338.947 3.01499 340.419 3.44539C353.967 7.82666 357.029 20.04 346.739 29.8925C336.779 39.4633 324.26 44.5092 311.268 48.3055C300.623 51.3948 289.749 52.9952 277.894 52.1338C288.184 34.9065 298.829 19.051 315.54 8.41154M271.674 51.3469C270.31 50.3579 271.7 49.5976 272.279 48.9915C273.677 47.3887 275.527 46.2486 277.586 45.7215C276.296 47.9015 275.463 49.369 274.603 50.8418C273.818 52.1338 272.603 52.0328 271.669 51.3469" fill="#E5CBBD"/>
<path d="M233.343 87.1414C232.509 86.6097 231.979 87.5455 231.501 88.1038C230.111 89.7255 228.848 91.4961 227.351 93.0646C225.343 95.218 223.217 97.2576 220.983 99.174C218.05 101.802 214.596 103.779 210.847 104.975C210.592 105.049 210.343 105.124 210.114 105.177C209.886 105.23 209.584 105.305 209.329 105.352C206.071 106.038 203.895 105.379 202.961 103.481C202.25 102.109 202.175 100.11 202.759 97.4991C205.485 85.4544 210.487 74.0441 217.496 63.8845C218.51 62.417 220.58 60.8698 219.518 58.8971C218.457 56.9245 216.865 59.5033 215.421 59.147C213.097 58.5675 210.746 57.8071 208.368 58.945C198.662 63.6346 190.856 70.6 186.828 80.5802C184.907 85.3655 181.696 87.8486 177.981 90.3848C177.148 90.9165 176.108 91.6237 175.201 90.8368C174.463 90.2572 174.67 89.1672 174.845 88.3059C175.577 83.6162 177.169 79.2083 178.99 74.8802C183.161 65.0224 188.829 55.9568 194.236 46.7636C196.009 43.77 195.552 39.3622 193.249 37.2619C190.697 34.9331 188.192 36.475 185.867 37.666C180.507 40.4788 176.161 44.5782 171.836 48.7362C164.051 56.1801 156.918 64.2674 149.993 72.5992C150.337 71.1544 150.818 69.746 151.431 68.3934C154.392 61.4812 157.221 54.569 158.691 47.1677C159.121 45.0408 158.84 43.116 156.972 41.6964C155.104 40.2767 153.304 40.7606 151.612 41.7442C149.208 43.116 146.931 44.7112 144.15 46.5296C145.339 42.2759 146.427 38.4955 147.44 34.7257C148.321 31.5355 148.502 28.4941 145.541 26.0376C142.579 23.5811 139.475 23.629 136.264 24.9742C124.934 29.7595 115.302 36.8791 107.899 46.7742C106.307 48.901 105.113 51.3841 104.991 54.1224C104.81 57.8443 107.947 60.7581 110.881 59.6947C111.587 59.4395 112.447 59.163 112.293 58.174C112.171 57.3392 111.386 57.4402 110.802 57.3924C106.938 57.0627 106.912 54.8083 108.276 52.0753C109.109 50.3603 110.135 48.7459 111.333 47.2634C117.575 40.0216 125.101 34.0005 133.531 29.5043C135.875 28.2242 138.442 27.4065 141.093 27.0957C143.673 26.8192 145.291 28.0368 144.882 30.5412C143.391 39.3303 141.497 48.146 135.479 55.0901C129.111 62.3851 122.811 69.6536 117.966 78.0652C116.629 80.3941 115.392 82.8027 115.392 85.5623C115.392 87.5615 116.199 88.4016 118.269 87.4604C120.115 86.5943 121.728 85.3003 122.976 83.6853C128.816 76.3119 133.758 68.2671 137.697 59.7213C140.504 53.6704 144.925 49.3849 150.237 45.7639C151.755 44.7005 153.676 42.9246 155.342 44.1157C156.934 45.2322 155.523 47.4335 155.04 49.0818C151.903 60.0031 146.873 70.1321 141.895 80.293C141.364 81.3564 140.425 82.6485 141.842 83.6587C143.259 84.669 144.548 83.9618 145.61 82.9516C146.294 82.1972 146.92 81.392 147.483 80.5429C156.457 68.5205 166.546 57.3759 177.615 47.258C180.651 44.5251 183.787 41.8878 187.502 40.1916C188.945 39.5323 190.84 38.3413 192.082 39.862C193.191 41.2285 191.551 42.6747 190.813 43.9136C184.19 55.239 177.923 66.6866 173.831 79.203C172.77 82.3667 171.884 85.5835 172.112 88.9014C172.462 94.1706 175.349 95.6913 179.722 92.9317C181.643 91.7141 183.309 90.0924 185.082 88.6515C185.735 88.1198 186.218 87.0564 187.205 87.2797C189.985 87.8911 191.726 86.0408 193.674 84.7009C198.604 81.2767 202.955 77.0975 208.087 72.3865C207.556 73.8062 207.429 74.2635 207.227 74.7154C203.688 82.3401 200.806 90.22 199.846 98.6423C199.621 100.274 199.803 101.937 200.376 103.481C201.645 106.724 204.776 108.596 209 108.468C211.811 108.344 214.529 107.422 216.838 105.81C219.997 103.74 222.952 101.374 225.663 98.7433C227.055 97.3884 228.363 95.9501 229.58 94.4364C230.87 92.8679 232.058 91.193 233.194 89.5235C233.677 88.8163 234.308 87.8539 233.295 87.1946M120.413 81.8244C122.886 75.0079 127.158 69.3345 131.812 63.9643C128.527 70.2703 125.061 76.4275 120.413 81.8244ZM195.011 80.8088C194.252 81.3405 193.419 82.5315 192.405 81.8722C191.392 81.2129 192.076 79.9474 192.485 79.1126C195.494 72.9821 199.538 67.6597 205.025 63.5336C206.389 62.518 207.907 61.8853 209.647 62.1884C210.079 62.2069 210.49 62.3768 210.809 62.6684C211.129 62.96 211.335 63.3547 211.393 63.7835C211.064 64.2674 210.788 64.698 210.486 65.1021C205.779 70.7755 200.976 76.3743 195.011 80.8088Z" fill="#E5CBBD"/>
<path d="M99.4452 84.4564C99.3709 83.7173 99.4452 82.7549 98.4369 82.7071C97.5241 82.6539 97.2481 83.4674 97.0942 84.2544C96.7917 85.7485 96.6166 87.2638 96.1868 88.7101C94.064 95.702 89.0544 99.4506 81.7521 99.3442C79.0832 99.2463 76.4307 98.8811 73.8343 98.2542C58.0623 94.7822 44.5617 86.4237 30.9336 78.2673C29.3416 77.3315 29.6918 76.3425 30.1748 75.1037C34.5742 63.7304 39.0213 52.3785 45.3948 41.9198C47.5176 38.4212 49.895 35.1299 53.2065 32.6468C56.3163 30.2914 59.3731 30.3179 62.7589 32.3916C66.6882 34.772 69.6849 38.4294 71.2498 42.7546C71.5523 43.5894 71.9557 44.5518 73.017 44.3763C73.8767 44.2487 74.158 43.4352 73.9563 42.5791C71.3507 31.6579 62.6262 23.8843 51.6304 30.3924C47.7882 32.6734 45.0552 35.9168 42.7573 39.6388C37.3708 48.3003 33.6295 57.7487 29.8882 67.1972C28.8268 69.9089 28.3704 73.9126 26.3963 74.9016C24.2735 75.965 21.3441 72.8971 18.7119 71.7114C15.2253 70.1163 11.76 68.6222 7.9178 68.1383C4.80798 67.7342 2.3562 68.8774 0.711076 71.3817C-0.732389 73.6149 0.43511 75.8162 1.59731 77.8154C3.76553 81.5678 6.7515 84.7813 10.3324 87.216C16.5255 91.4696 22.241 90.5072 26.3114 84.1746C27.7283 81.9733 28.6888 82.0212 30.6842 83.1856C38.6138 87.7416 46.8121 91.8113 55.2337 95.3724C63.3479 98.7647 71.7434 101.12 79.3534 101.753C82.4302 101.817 85.5012 101.459 88.4812 100.689C95.2315 98.8657 100.262 91.3952 99.4505 84.4564M18.2927 87.317C13.3361 87.3648 4.23483 79.0064 3.96418 74.1679C3.86335 72.4717 4.7496 72.2218 6.08693 72.4983C12.4552 73.8382 18.1972 76.752 23.9339 79.6657C24.2156 79.8122 24.4405 80.0486 24.5731 80.3374C24.7057 80.6263 24.7385 80.9512 24.6662 81.2608C24.5177 84.0204 21.1 87.3117 18.298 87.3383" fill="#E5CBBD"/>
<path d="M78.9926 52.5114C76.9442 50.1559 74.572 50.9907 72.4705 52.4369C69.764 54.2873 66.9832 56.111 64.6588 58.3655C59.0972 63.8101 55.1755 70.2172 54.268 77.1081C54.0133 83.7226 58.4657 87.4445 63.8734 86.2801C66.9688 85.5381 69.8789 84.1662 72.4228 82.2498C73.1073 81.7712 74.2165 81.2874 73.585 80.2239C72.9534 79.1605 72.0407 79.7454 71.2606 80.1974C68.47 81.7178 65.4432 82.755 62.3079 83.2653C59.1238 83.8449 57.4574 82.4305 57.4309 79.1871C57.4043 76.2999 58.6674 73.7903 59.8561 71.2594C61.2996 68.1648 63.1676 66.474 67.0628 66.6495C72.2954 66.8728 76.6152 64.2408 79.5764 59.8861C81.2693 57.4243 80.9668 54.7392 79.0457 52.5114M76.976 57.7061C74.5455 61.2526 70.905 62.7733 65.9006 63.8846C69.0105 60.136 71.7382 57.6051 75.0019 55.6006C75.6334 55.1965 76.4666 54.7924 77.1246 55.3241C78.0109 56.0313 77.4537 57.0202 77.0026 57.7061" fill="#E5CBBD"/>
<path d="M208.071 128.689C206.803 127.982 206.145 129.657 205.386 130.438C203.38 132.507 201.194 134.277 198.445 135.341C200.185 131.183 203.221 128.285 207.063 126.19C207.997 125.658 208.283 125.18 207.594 124.51C206.904 123.84 205.805 123.303 204.733 123.877C200.376 126.19 197.733 130.008 195.828 134.394C195.473 135.224 195.213 136.42 196.168 137.18C197.123 137.941 198.163 137.824 199.182 137.414C199.772 137.158 200.328 136.829 200.838 136.436C202.053 135.543 203.242 134.612 204.717 133.49C203.938 138.27 202.804 142.985 201.326 147.597C201.194 148.011 200.647 148.5 201.188 148.82C201.435 148.916 201.706 148.934 201.964 148.87C202.221 148.806 202.453 148.664 202.626 148.463C202.982 148.003 203.268 147.492 203.475 146.948C205.704 142.2 207.026 137.154 208.183 132.06C208.443 130.922 209.345 129.402 208.071 128.684" fill="#E5CBBD"/>
<path d="M220.802 126.291C221.211 125.855 222.32 125.525 221.694 124.696C221.068 123.867 220.213 124.446 219.523 124.925C217.837 125.991 216.273 127.239 214.859 128.647C212.004 131.757 208.973 134.814 209.239 138.276C209.286 142.912 210.804 145.544 213.314 147.591C215.082 149.027 218.499 148.937 220.07 147.591C221.413 146.448 221.551 143.965 220.383 141.7C220.159 141.291 219.911 140.895 219.64 140.514C218.387 138.661 216.728 137.119 214.79 136.005C213.681 135.357 213.882 134.793 214.434 133.964C216.34 131.228 218.47 128.656 220.802 126.275M217.799 143.109C218.101 143.869 218.51 144.704 217.857 145.411C217.204 146.119 216.265 145.975 215.416 145.704C212.099 144.64 211.064 142.79 211.929 139.424C212.184 138.237 212.633 137.1 213.256 136.059C215.05 138.387 216.774 140.52 217.799 143.109Z" fill="#E5CBBD"/>
<path d="M232.6 139.648C231.664 139.041 230.64 138.583 229.564 138.292C228.333 137.909 227.999 137.297 228.864 136.165C230.355 134.203 231.782 132.193 233.199 130.178C234.431 128.413 233.91 126.892 231.851 126.238C231.228 126.096 230.595 126.005 229.957 125.967C228.625 125.85 227.42 126.498 226.141 126.589C224.241 126.743 223.408 127.971 223.005 129.635C222.734 130.752 223.005 131.188 224.263 130.763C225.71 130.307 227.181 129.925 228.667 129.62C229.171 129.503 229.787 129.417 230.158 129.869C230.615 130.401 230.042 130.853 229.798 131.268C228.574 133.27 227.212 135.183 225.722 136.994C224.475 138.552 224.772 139.461 226.608 140.126C227.266 140.365 227.935 140.589 228.598 140.812C229.362 141.073 230.509 141.12 230.652 141.918C230.811 142.827 229.734 143.306 229.028 143.763C226.868 145.172 224.671 146.512 222.479 147.873C222.124 148.096 221.705 148.314 221.795 148.788C221.885 149.261 222.326 149.319 222.761 149.319C227.277 149.319 230.594 146.932 233.374 143.704C234.627 142.242 234.229 140.791 232.605 139.658" fill="#E5CBBD"/>
<path d="M172.467 143.253C172.181 143.285 171.9 143.407 171.613 143.449C170.881 143.545 170.159 143.449 169.74 142.79C169.246 142.008 169.83 141.493 170.334 140.977C171.523 139.749 172.69 138.504 173.141 136.782C173.386 135.867 173.343 134.926 172.542 134.384C171.645 133.778 170.716 134.198 169.994 134.889C168.616 136.099 167.639 137.702 167.192 139.483C166.481 142.902 163.854 144.199 161.026 145.294C160.193 145.613 159.306 145.486 158.871 144.651C158.676 144.282 158.601 143.862 158.657 143.448C158.712 143.034 158.894 142.648 159.179 142.343C159.504 142.003 159.859 141.693 160.24 141.418C161.4 140.429 162.661 139.567 164.003 138.845C164.373 138.652 164.653 138.321 164.782 137.923C164.911 137.525 164.879 137.092 164.693 136.718C164.247 135.75 163.419 136.447 162.883 136.718C161.815 137.194 160.819 137.821 159.927 138.579C158.415 139.972 156.213 140.706 155.528 142.928C154.318 142.827 153.83 142.056 153.48 140.977C152.827 138.978 151.845 138.664 150.035 139.706C149.256 140.229 148.554 140.859 147.95 141.578C147.573 141.961 147.281 142.487 146.506 142.545C146.941 141.078 147.345 139.743 147.727 138.409C147.929 137.696 147.976 136.963 147.292 136.489C146.989 136.294 146.626 136.213 146.269 136.262C145.912 136.311 145.584 136.486 145.344 136.755C143.922 138.201 142.547 139.695 141.194 141.2L141.04 141.376C140.27 142.141 139.447 142.852 138.578 143.503C137.198 144.231 136.805 144.034 136.429 142.402C136.243 141.599 136.089 140.807 135.972 139.977C135.962 139.622 135.836 139.279 135.614 139.002C135.392 138.724 135.085 138.527 134.741 138.441C134.014 138.255 133.738 138.866 133.351 139.291C132.289 140.435 131.228 141.556 130.166 142.684C130.267 139.983 128.574 138.356 127.078 136.638C126.34 135.803 125.613 134.953 124.955 134.054C123.363 131.895 123.501 130.827 125.719 128.636C125.91 129.348 125.868 130.268 126.86 129.747C128.373 128.963 129.763 127.96 130.984 126.77C131.621 126.153 131.514 125.222 131.185 124.441C130.947 123.84 130.326 123.824 129.816 124.015C126.813 125.127 123.979 126.562 121.978 129.152C120.216 131.427 120.386 133.405 121.925 135.724C123.124 137.505 124.945 138.653 126.17 140.403C126.977 141.556 127.035 142.413 126.33 143.694C125.624 144.975 125.433 143.093 124.738 143.694C123.851 144.481 122.562 144.789 121.469 145.364C120.673 145.778 119.489 146.198 120.025 147.331C120.519 148.394 121.617 148.522 122.795 148.112C124.505 147.482 126.075 146.523 127.418 145.289C127.907 144.777 128.574 144.474 129.28 144.444C129.778 144.464 130.274 144.365 130.726 144.155C131.178 143.945 131.574 143.63 131.881 143.237C132.464 142.524 133.027 142.519 133.473 143.444C133.669 143.864 133.961 144.242 134.168 144.656C134.943 146.172 136.094 146.597 137.633 145.847C138.177 145.562 138.698 145.237 139.193 144.874C140.021 144.534 141.847 142.705 141.847 142.705C142.542 142.072 143.094 141.211 144.177 140.785C144.06 142.519 143.397 143.896 142.993 145.332C142.792 146.049 142.309 146.927 143.094 147.427C143.879 147.926 144.622 147.219 145.217 146.645C146.278 145.629 147.217 144.518 148.348 143.593C150.338 141.998 150.38 142.04 151.813 144.125C152.875 145.688 153.511 145.8 155.119 144.741C155.395 144.561 155.613 144.21 156.032 144.38C155.751 145.603 156.292 146.384 157.316 146.985C159.275 148.134 161.031 147.464 162.745 146.454C163.992 145.704 165.171 144.821 166.349 143.954C166.826 143.604 167.081 143.582 167.463 144.114C169.204 146.549 171.04 146.773 173.396 144.954C173.927 144.534 174.638 144.199 174.107 143.269C173.577 142.338 173.046 143.215 172.515 143.269M170.159 137.808C170.361 137.584 170.607 137.403 170.881 137.276C170.986 137.542 171.003 137.835 170.928 138.111C170.767 138.377 170.59 138.632 170.398 138.877L169.968 139.435C169.862 139.573 169.74 139.828 169.527 139.685C169.489 139.341 169.527 138.992 169.64 138.664C169.753 138.337 169.937 138.039 170.18 137.792" fill="#E5CBBD"/>
<path d="M192.315 126.615C192.033 126.46 191.705 126.409 191.39 126.472C191.074 126.536 190.791 126.709 190.59 126.961C188.083 129.667 185.752 132.531 183.612 135.537C183.129 136.239 182.805 137.021 183.378 137.957C185.618 136.138 187.21 133.762 189.54 132.236C189.991 132.56 189.858 132.937 189.826 133.262C189.295 138.382 188.85 143.513 187.491 148.506C187.358 148.995 187.008 149.628 187.581 149.925C188.155 150.223 188.489 149.585 188.86 149.224C189.78 148.23 190.421 147.01 190.718 145.688C191.853 141.865 192.22 137.893 192.894 133.99C193.207 132.145 193.27 130.268 193.424 128.386C193.482 128.007 193.401 127.621 193.198 127.297C192.994 126.972 192.681 126.733 192.315 126.621" fill="#E5CBBD"/>
<path d="M134.821 133.942C136.238 134.118 137.564 132.693 137.809 130.694C137.947 130.119 137.92 129.63 137.166 129.566C136.227 129.46 133.982 131.47 133.876 132.571C133.807 133.267 133.961 133.836 134.821 133.942Z" fill="#E5CBBD"/>
</g>
</g>
<defs>
<clipPath id="clip0_1081_415">
<rect width="356" height="150" fill="white"/>
</clipPath>
</defs>
</svg>
