<svg width="341" height="261" viewBox="0 0 341 261" fill="none" xmlns="http://www.w3.org/2000/svg">
<path d="M36.1326 232.937V240.248H34.4603V232.937H31.8823V232.27H38.7304V232.937H36.1326Z" fill="#3A1314"/>
<path d="M47.8259 236.619H44.7588V240.241H43.0864V232.27H44.7588V235.951H47.8259V232.27H49.485V240.241H47.8259V236.619Z" fill="#3A1314"/>
<path d="M54.6214 232.27H59.3542V232.937H56.2871V235.918H59.1295V236.579H56.2871V239.574H59.5856V240.241H54.6147V232.27H54.6214Z" fill="#3A1314"/>
<path d="M73.1958 240.311L70.8294 234.15V240.251H70.1089V232.279H71.8209L73.9428 237.739L76.0646 232.279H77.77V240.251H76.0977V233.978L73.6717 240.311H73.1958Z" fill="#3A1314"/>
<path d="M82.5095 236.343C82.5095 234.135 83.8844 232.152 86.2178 232.152C88.5512 232.152 89.9261 234.135 89.9261 236.343C89.9261 238.564 88.5512 240.369 86.2178 240.369C83.8844 240.369 82.5095 238.571 82.5095 236.343ZM88.1876 236.343C88.1876 233.772 87.3547 232.813 86.2178 232.813C85.0809 232.813 84.248 233.765 84.248 236.343C84.248 238.987 85.0809 239.701 86.2178 239.701C87.3613 239.701 88.1876 238.994 88.1876 236.343Z" fill="#3A1314"/>
<path d="M99.881 240.311L95.2671 233.76V240.251H94.5466V232.279H96.1397L99.8678 237.521V232.279H100.588V240.317H99.881V240.311Z" fill="#3A1314"/>
<path d="M109.201 232.937V240.248H107.529V232.937H104.951V232.27H111.799V232.937H109.201Z" fill="#3A1314"/>
<path d="M120.894 236.619H117.827V240.241H116.155V232.27H117.827V235.951H120.894V232.27H122.553V240.241H120.894V236.619Z" fill="#3A1314"/>
<path d="M133.097 236.343C133.097 234.135 134.472 232.152 136.805 232.152C139.138 232.152 140.513 234.135 140.513 236.343C140.513 238.564 139.138 240.369 136.805 240.369C134.472 240.369 133.097 238.571 133.097 236.343ZM138.775 236.343C138.775 233.772 137.942 232.813 136.805 232.813C135.668 232.813 134.835 233.765 134.835 236.343C134.835 238.987 135.668 239.701 136.805 239.701C137.942 239.701 138.775 238.994 138.775 236.343Z" fill="#3A1314"/>
<path d="M146.806 236.708V240.251H145.134V232.279H149.635V232.947H146.8V236.054H149.424V236.721H146.806V236.708Z" fill="#3A1314"/>
<path d="M163.748 238.24H160.859L160.099 240.243H159.299L162.485 232.205H162.974L166.392 240.243H164.567L163.748 238.24ZM162.254 234.558L161.137 237.52H163.463L162.254 234.558Z" fill="#3A1314"/>
<path d="M170.649 232.27H172.321V239.58H175.507V240.248H170.649V232.27Z" fill="#3A1314"/>
<path d="M179.87 232.27H181.542V239.58H184.728V240.248H179.87V232.27Z" fill="#3A1314"/>
<path d="M198.477 232.937V240.248H196.805V232.937H194.227V232.27H201.075V232.937H198.477Z" fill="#3A1314"/>
<path d="M210.171 236.619H207.104V240.241H205.431V232.27H207.104V235.951H210.171V232.27H211.83V240.241H210.171V236.619Z" fill="#3A1314"/>
<path d="M220.542 238.24H217.653L216.893 240.243H216.094L219.28 232.205H219.769L223.186 240.243H221.362L220.542 238.24ZM219.048 234.558L217.931 237.52H220.251L219.048 234.558Z" fill="#3A1314"/>
<path d="M229.922 232.937V240.248H228.25V232.937H225.672V232.27H232.52V232.937H229.922Z" fill="#3A1314"/>
<path d="M244.471 240.251H242.798V232.279H244.471V240.251Z" fill="#3A1314"/>
<path d="M250.856 234.009C250.856 234.551 251.18 234.961 252.138 235.371C253.996 236.171 254.571 236.819 254.571 238.042C254.571 239.469 253.421 240.362 251.861 240.362C250.367 240.362 249.263 239.489 249.17 237.87H249.726C249.904 239.139 250.625 239.668 251.695 239.668C252.416 239.668 253.057 239.304 253.057 238.544C253.057 237.784 252.535 237.566 251.451 237.07C250.102 236.455 249.448 235.847 249.448 234.545C249.448 233.203 250.453 232.139 252.059 232.139C253.52 232.139 254.293 233.011 254.459 234.327H253.903C253.738 233.262 253.011 232.826 252.119 232.826C251.319 232.839 250.856 233.302 250.856 234.009Z" fill="#3A1314"/>
<path d="M271.38 240.249H270.574C270.574 240.044 270.389 239.852 270.144 239.647C269.655 240.097 268.994 240.375 268.254 240.375C265.795 240.375 264.645 238.768 264.645 236.329C264.645 233.903 266.218 232.158 268.326 232.158C269.82 232.158 270.924 233.282 271.129 234.789H270.574C270.409 233.639 269.635 232.879 268.518 232.879C267.222 232.879 266.383 233.626 266.383 236.323C266.383 238.775 267.137 239.647 268.472 239.647C268.961 239.647 269.391 239.502 269.721 239.251V237.38H268.835V236.719H271.38V240.249Z" fill="#3A1314"/>
<path d="M275.684 236.343C275.684 234.135 277.059 232.152 279.392 232.152C281.726 232.152 283.1 234.135 283.1 236.343C283.1 238.564 281.726 240.369 279.392 240.369C277.059 240.369 275.684 238.571 275.684 236.343ZM281.362 236.343C281.362 233.772 280.529 232.813 279.392 232.813C278.255 232.813 277.422 233.765 277.422 236.343C277.422 238.987 278.255 239.701 279.392 239.701C280.529 239.701 281.362 238.994 281.362 236.343Z" fill="#3A1314"/>
<path d="M287.437 236.343C287.437 234.135 288.811 232.152 291.145 232.152C293.478 232.152 294.853 234.135 294.853 236.343C294.853 238.564 293.478 240.369 291.145 240.369C288.811 240.369 287.437 238.571 287.437 236.343ZM293.108 236.343C293.108 233.772 292.275 232.813 291.138 232.813C290.001 232.813 289.168 233.765 289.168 236.343C289.168 238.987 290.001 239.701 291.138 239.701C292.275 239.701 293.108 238.994 293.108 236.343Z" fill="#3A1314"/>
<path d="M299.473 232.27H302.593C304.861 232.27 306.189 234.134 306.189 236.242C306.189 238.43 304.861 240.241 302.593 240.241H299.473V232.27ZM301.146 232.937V239.58H302.488C303.618 239.58 304.457 238.866 304.457 236.236C304.457 233.77 303.618 232.937 302.488 232.937H301.146Z" fill="#3A1314"/>
<path d="M328.922 98.1872C327.944 96.2571 327.144 94.241 326.721 92.1191C326.126 89.1446 326.403 86.0577 327.382 83.1889C327.547 82.6931 327.633 82.0123 326.734 83.6053C323.528 89.2636 321.076 96.6735 322.457 103.218C323.283 107.144 325.207 110.687 327.355 114.038C329.517 117.409 331.91 120.642 333.708 124.231C335.631 128.072 336.51 132.143 336.319 136.44C336.259 137.828 336.087 139.263 335.843 140.631C331.929 134.794 327.957 128.99 324.341 122.969C322.484 119.875 320.626 116.715 319.264 113.364C318.564 111.645 318.022 109.874 317.751 108.03C317.4 105.65 317.526 103.165 318.306 100.878C318.517 100.25 318.114 100.554 317.506 101.578C316.131 103.885 315.193 106.741 314.459 109.312C313.223 113.635 312.853 117.681 314.148 122.037C314.981 124.839 316.263 127.47 317.671 130.028C317.658 130.193 317.665 130.359 317.698 130.498C318.789 134.768 319.397 139.15 319.483 143.559C319.516 145.311 319.469 147.069 319.337 148.814C319.073 148.741 318.848 148.682 318.755 148.656C317.063 148.107 315.464 147.532 313.957 146.56C310.916 144.61 308.53 141.695 307.102 138.383C306.176 136.235 305.634 133.908 305.562 131.568C305.489 129.215 306.011 126.961 306.659 124.72C306.712 124.542 306.765 124.37 306.811 124.205C306.831 124.139 306.851 124.072 306.87 124.006C306.983 123.63 307.254 122.969 307.155 122.526C307.161 122.314 307.128 122.162 307.042 122.136C304.207 121.276 300.492 123.841 298.449 125.745C296.301 127.748 295.567 128.766 293.769 131.079C290.557 135.217 287.721 140.234 283.067 142.938C278.632 145.509 272.081 145.132 268.459 141.272C265.537 138.159 264.691 133.598 264.5 129.48C264.354 126.366 264.605 123.24 265.128 120.173C265.445 118.308 265.736 117.092 266.185 115.334C266.212 115.222 266.231 115.142 266.251 115.076C266.271 115.01 266.298 114.924 266.331 114.812C266.383 114.64 266.661 113.642 266.688 113.556C266.681 113.582 266.648 113.714 266.562 114.025C266.602 113.873 266.654 113.728 266.701 113.576C267.375 114.342 268.082 115.083 268.849 115.77C273.694 120.106 281.521 123.18 283.319 130.048C283.319 130.246 283.371 130.326 283.451 130.312C283.609 130.412 283.847 129.975 283.98 129.751C285.877 127.503 288.018 124.125 289.228 121.633C291.112 117.753 292.784 113.609 293.749 109.391C294.847 104.586 294.298 99.6018 292.09 95.1862C291.423 93.851 290.616 92.6414 289.73 91.511C289.896 91.1012 290.054 90.6847 290.213 90.2815C291.78 86.2229 293.227 81.9329 293.353 77.5372C293.472 73.3927 291.667 66.8618 287.589 64.7003C285.791 63.7485 283.55 64.1715 281.692 64.707C278.599 65.6059 277.436 66.4983 274.752 68.25C272.392 69.7902 270.303 72.0178 268.571 74.2916C266.582 72.1764 264.883 69.7108 264.123 66.8949C263.772 65.5993 263.614 64.2575 263.673 62.9156C263.7 62.3273 263.766 61.6993 263.911 61.111C264.063 60.4963 264.314 59.908 264.466 59.2933C264.48 59.2338 264.493 59.1677 264.48 59.1082C264.466 59.0487 264.407 58.9958 264.348 59.0024C264.301 59.009 264.268 59.0421 264.235 59.0751C263.449 59.9345 262.88 61.0582 262.351 62.0894C261.703 63.3453 261.128 64.6475 260.633 65.9695C259.628 68.6466 258.888 71.5088 258.888 74.3908C258.888 76.5259 259.535 78.6609 260.467 80.5713C261.287 82.2502 262.378 83.7573 263.62 85.1322C263.277 86.2956 262.973 87.4458 262.688 88.5298C261.651 92.5554 261.32 96.7264 261.657 100.871C261.756 102.114 261.922 103.35 262.173 104.566C261.214 105.28 260.289 106.014 259.383 106.761C258.015 107.898 256.693 109.074 255.417 110.277C248.212 117.072 241.933 124.489 235.627 131.872C234.952 131.522 234.271 131.178 233.591 130.868C232.883 130.537 232.169 130.24 231.449 129.942C232.13 128.316 232.844 126.399 233.28 124.852C235.177 118.15 236.089 111.189 234.939 104.255C234.047 98.8549 232.143 93.5337 230.14 88.4505C228.659 84.696 226.749 81.1265 224.905 77.5372C221.481 70.8676 217.925 64.2178 215.538 57.0921C214.197 53.0731 213.271 48.9088 212.921 44.6783C212.749 42.5829 212.716 40.4676 212.861 38.3656C212.927 37.3542 213.046 36.3495 213.218 35.3514C213.251 35.1399 213.298 34.9283 213.331 34.7168C213.331 34.7036 213.456 34.0823 213.383 34.3929C213.43 34.1814 213.747 32.5223 214.216 30.7772C214.349 30.288 214.223 30.0567 213.569 31.1936C212.22 33.5336 211.295 36.3495 210.521 38.9275C208.201 46.6811 207.89 54.5538 209.669 62.4529C211.334 69.8562 214.527 76.777 217.951 83.5062C220.298 88.12 222.823 92.6744 224.945 97.4072C226.809 101.565 228.336 105.981 229.552 110.363C230.596 114.131 231.191 117.998 231.138 121.918C231.118 123.431 231.026 124.991 230.854 126.472C223.979 122.552 217.402 118.13 211.255 113.153C207.95 110.475 204.764 107.64 201.994 104.394C199.535 101.506 197.116 98.3855 195.47 94.9549C194.459 92.8529 193.798 90.6253 193.54 88.3051C193.401 87.0294 193.375 85.7404 193.461 84.458C193.494 84.0019 193.54 83.5524 193.613 83.1029C193.646 82.8914 193.685 82.6799 193.725 82.4684C193.738 82.4089 193.758 82.2965 193.784 82.1907C193.884 81.8338 194.207 80.5514 193.963 80.4655C193.672 80.3597 192.899 82.0916 192.952 81.9924C191.735 84.5307 190.658 87.3136 190.017 90.0634C188.985 94.4525 188.728 98.8615 190.076 103.218C191.259 107.045 193.52 110.323 195.946 113.463C199.158 117.614 202.953 121.224 207.011 124.522C204.129 124.238 201.241 123.973 198.359 123.669C193.401 123.154 188.258 122.863 183.393 121.699C177.986 120.404 173.002 117.304 170.2 112.392C168.93 110.178 168.25 107.666 168.216 105.121C168.203 104.176 168.309 103.231 168.461 102.352L169.089 99.4564C169.168 99.1325 169.228 98.8483 169.267 98.6235L169.413 97.9691C169.413 97.9493 169.4 97.936 169.4 97.9162C169.406 97.8303 169.393 97.7708 169.347 97.7444C168.725 96.4356 162.856 99.8662 162.856 99.8662C160.271 101.413 157.931 103.211 155.717 105.095C154.362 106.252 153.059 107.441 151.797 108.664C146.793 113.516 142.258 118.672 137.843 123.901C137.77 123.451 137.704 123.002 137.625 122.552C136.825 118.057 135.549 113.675 134.121 109.345C136.937 106.007 139.707 102.695 142.437 99.4564C146.231 95.1598 149.497 91.9341 152.306 89.528C152.498 89.3627 152.696 89.1975 152.881 89.0388C156.265 86.0775 160.086 83.645 164.508 82.5741C166.141 82.1775 167.661 82.2634 168.97 83.1095C169.301 83.3211 169.598 83.6053 169.922 83.9028C170.279 84.2267 172.11 74.3049 172.143 73.7694C172.176 73.3001 172.381 72.3086 172.031 71.9451C169.248 69.0366 163.867 71.1188 160.555 73.0357C160.35 73.1679 160.159 73.2935 159.993 73.4059C157.376 75.1311 154.957 77.1208 152.656 79.2492C151.513 80.3069 150.402 81.3975 149.305 82.508C144.896 86.9897 140.831 91.7886 137.043 96.8057C135.364 99.0267 133.692 101.155 132.013 103.211C131.266 101.082 130.499 98.954 129.66 96.8586C127.121 90.5129 123.856 84.4712 120.736 78.3965C115.031 67.2915 109.142 56.1931 105.288 44.2685C103.133 37.5922 101.672 30.678 101.183 23.6713C100.939 20.1481 100.939 16.6051 101.236 13.0885C101.448 10.5832 101.864 8.05818 102.432 5.59921C102.439 5.57277 102.446 5.55294 102.452 5.5265C102.73 4.31684 103.014 3.10058 103.358 1.90415C103.702 0.714329 103.483 0.839924 103.331 1.0184C103.179 1.20348 102.981 1.58025 102.875 1.76533C102.697 2.06279 102.551 2.38008 102.393 2.68414C102.109 3.23939 101.844 3.79465 101.6 4.36312C101.11 5.50006 100.694 6.67006 100.311 7.84666C100.225 8.11767 100.132 8.38869 100.046 8.6597C100.033 8.69275 100.02 8.73241 100.013 8.76547C100 8.79852 99.9933 8.83817 99.9801 8.87122C99.8942 9.14884 99.8083 9.43308 99.7223 9.71071C95.9281 22.2699 95.9347 35.3316 98.982 48.0494C101.904 60.2319 107.264 71.6013 112.943 82.7063C116.737 90.1295 120.795 97.4734 124.18 105.101C124.9 106.728 125.561 108.373 126.196 110.033C46.0547 199.93 -30.279 113.305 21.1676 67.0403C35.2472 55.0562 54.5487 50.7927 72.5481 54.4943C52.8565 49.8011 31.4397 55.0892 16.5934 68.9705C-18.3808 102.669 6.0899 167.144 58.7329 161.532C88.0555 158.405 109.578 137.683 128.371 116.041C129.673 119.736 130.909 123.451 131.914 127.232C132.171 128.197 132.403 129.162 132.614 130.134C130.711 132.428 128.807 134.721 126.87 136.989C111.621 154.896 93.0858 173.49 64.2722 176.193C47.9849 177.72 31.3406 174.032 16.5868 167.812C16.2166 167.653 35.9214 182.493 55.104 185.996C73.2025 189.301 85.266 184.43 97.0981 176.246C112.176 165.815 122.897 152.126 133.989 138.813C134.234 141.444 134.333 144.095 134.247 146.752C134.161 149.555 133.936 152.364 133.546 155.087C133.401 156.118 133.209 157.143 132.998 158.168C132.832 158.974 132.819 159.027 132.594 159.946C132.535 160.177 132.476 160.415 132.416 160.646C132.363 160.845 132.31 161.043 132.257 161.235C132.086 161.856 131.596 163.634 131.477 164.07C131.134 165.379 132.442 162.768 132.667 162.325C134.049 159.569 134.511 158.32 135.391 155.656C137.757 148.457 138.834 140.869 138.669 133.274C140.844 130.742 143.058 128.243 145.345 125.804C145.345 125.804 153.694 115.631 164.502 110.125C163.814 113.291 163.596 116.55 164.402 119.71C165.533 124.106 168.402 127.774 172.216 130.227C176.459 132.95 181.45 133.677 186.361 134.212C191.266 134.748 196.164 135.29 201.075 135.759C208.783 136.486 216.325 137.517 223.695 140.016C224.905 140.426 226.128 140.882 227.344 141.378C212.372 158.055 194.128 174.448 166.961 176.623C150.653 177.925 134.062 174.012 119.394 167.587C119.024 167.428 138.53 182.526 157.66 186.294C175.712 189.85 187.842 185.143 199.786 177.119C213.37 167.99 223.517 156.224 233.558 144.445C235.633 145.701 237.563 147.162 239.222 148.9C241.543 151.333 243.307 154.38 244.398 157.553C245.218 159.926 245.595 162.729 245.535 165.366C245.509 166.49 245.403 167.594 245.198 168.697C245.158 168.902 245.119 169.101 245.079 169.299C245.079 169.306 245.079 169.306 245.072 169.312C245.172 168.77 245.099 169.127 245.046 169.385C245 169.544 244.96 169.702 244.914 169.848C244.821 170.145 244.094 172.141 244.299 172.597C244.511 173.06 244.696 172.611 244.947 172.181C246.342 169.841 247.181 167.025 247.994 164.447C249.462 159.774 250.327 154.823 249.514 149.938C248.82 145.813 246.996 141.887 244.372 138.635C243.446 137.484 242.375 136.46 241.232 135.521C243.671 132.745 246.15 130.008 248.715 127.351C248.715 127.351 255.873 118.87 265.471 113.331C262.946 120.371 260.871 127.622 260.262 135.092C259.859 140.01 260.077 145.41 262.351 149.905C264.751 154.651 269.345 156.812 274.521 155.768C280.688 154.525 285.361 148.583 288.805 143.857C290.471 141.569 292.275 139.388 294.232 137.346C296.46 135.025 298.985 132.692 302.376 133.446C301.272 137.511 300.769 141.722 301.662 145.859C302.627 150.354 305.046 154.492 308.741 157.269C310.526 158.61 312.456 159.397 314.558 160.078C315.146 160.27 316.204 160.878 316.799 160.613C317.11 160.474 317.295 160.045 317.453 159.774C317.923 158.987 318.313 158.088 318.683 157.255C321.188 151.624 322.794 145.787 323.435 139.692C326.384 144.286 329.47 148.801 332.505 153.336C332.63 153.527 333.509 151.815 333.529 151.782C333.628 151.571 333.727 151.359 333.827 151.148C335.023 148.933 335.81 146.368 336.55 144.002C339.055 135.971 342.036 126.928 339.941 118.467C338.083 110.813 332.405 105.075 328.922 98.1872ZM270.059 101.063C268.499 99.0333 267.309 96.7462 266.701 94.122C266.205 91.9803 266 89.7197 265.98 87.4921C267.249 88.6158 268.598 89.6536 269.953 90.6319C272.69 92.6083 275.644 94.512 278.421 96.5876C277.614 97.1561 276.794 97.6584 275.948 98.0749C273.978 99.0399 272.009 100.025 270.059 101.063ZM289.215 115.592C289.017 116.834 288.64 118.064 288.19 119.214C288.085 118.527 287.754 117.826 287.476 117.231C286.875 115.962 286.049 114.818 285.097 113.787C283.153 111.672 280.76 110.039 278.407 108.42C277.898 108.069 277.389 107.719 276.887 107.362C276.695 107.223 276.504 107.084 276.312 106.946C279.035 105.359 281.64 103.528 283.874 101.367C286.359 104.031 288.289 107.124 289.149 110.991C289.671 113.364 289.254 115.334 289.215 115.592ZM281.25 74.0669C285.315 74.1727 287.404 78.846 288.078 82.3097C288.408 84.0019 288.501 85.7338 288.375 87.4458C287.992 87.8887 287.576 88.3051 287.152 88.7017C282.631 84.3787 276.775 81.3248 271.89 77.3521C272.676 76.7308 273.483 76.2548 274.507 75.7921C276.596 74.8601 278.936 74.0074 281.25 74.0669Z" fill="#3A1314"/>
<path d="M229.935 54.2919C232.282 58.9058 234.807 63.4602 236.929 68.193C238.793 72.3508 240.32 76.7664 241.536 81.1489C242.58 84.9167 243.175 88.7836 243.122 92.7034C243.103 94.4418 242.984 96.2596 242.759 97.932C242.686 98.4674 242.6 98.9962 242.501 99.525C242.461 99.7498 242.415 99.9679 242.369 100.193C242.356 100.239 242.223 100.84 242.303 100.49C242.23 100.794 241.688 103.299 241.562 103.795C241.258 104.992 241.979 103.815 242.21 103.379C243.036 101.832 244.53 98.2162 245.257 95.6449C247.155 88.9422 248.067 81.9818 246.917 75.0478C246.024 69.6473 244.12 64.3261 242.118 59.2429C240.637 55.4884 238.727 51.9189 236.882 48.3296C233.458 41.66 229.902 35.0102 227.516 27.8845C226.174 23.8655 225.249 19.7012 224.898 15.4707C224.726 13.3753 224.693 11.26 224.839 9.15801C224.905 8.14666 225.024 7.14192 225.196 6.14379C225.229 5.93227 225.275 5.72074 225.308 5.50921C225.308 5.49599 225.434 4.87464 225.361 5.18531C225.407 4.97379 225.725 3.31466 226.194 1.56959C226.326 1.08044 226.2 0.849075 225.546 1.98602C224.198 4.326 223.272 7.14191 222.499 9.71986C220.179 17.4735 219.868 25.3462 221.646 33.2453C223.325 40.642 226.511 47.5628 229.935 54.2919Z" fill="#3A1314"/>
<path d="M305.284 100.898C305.509 100.456 305.747 100.026 305.958 99.5764C305.972 99.55 305.985 99.5235 305.998 99.4971C306.388 98.6378 306.745 97.752 306.97 96.8134C307.023 96.5886 307.069 96.3573 307.109 96.1259C307.327 94.8105 307.327 93.429 307.148 92.107C307.102 91.9219 307.102 92.6225 307.075 92.8407C307.049 93.0919 307.009 93.3431 306.976 93.5942C306.666 95.5839 306.137 96.9059 306.018 97.2166C305.879 97.5801 304.802 99.9994 304.676 100.376C304.141 101.797 303.532 104.058 303.592 105.631C303.599 105.896 303.625 106.16 303.658 106.418C303.691 106.696 303.751 106.973 303.837 107.238C303.863 107.31 303.889 107.383 303.916 107.456C304.094 107.885 304.445 108.705 305.159 108.93C305.515 109.042 305.905 108.996 306.243 108.817C307.003 108.427 307.565 107.542 307.895 106.689C308.325 105.578 308.45 105.017 308.543 103.807C308.563 103.509 308.543 102.544 308.543 102.353C308.53 101.883 308.49 101.804 308.49 101.388C308.49 100.938 308.55 100.68 308.503 100.66C308.45 100.641 308.298 101.077 308.272 101.169C308.133 101.659 307.968 102.148 307.902 102.663C307.829 103.232 307.882 103.807 307.862 104.382C307.849 104.818 307.545 105.188 307.28 105.446C306.996 105.724 306.606 105.836 306.223 105.737C304.769 105.354 304.484 103.027 304.967 101.645C305.053 101.381 305.165 101.136 305.284 100.898Z" fill="#3A1314"/>
<path d="M265.663 56.4309C268.79 49.9199 274.739 46.5884 280.76 43.0123C287.813 38.8149 294.853 34.5977 301.919 30.4267C302.138 30.3011 304.273 24.1404 304.438 23.5059C304.207 23.6447 288.481 32.9716 280.516 37.7308C277.29 39.6544 273.846 41.6507 271.394 44.5525C269.675 46.5818 268.406 49.087 267.263 51.4667C266.535 52.987 265.901 54.7255 265.306 56.378C264.942 57.3893 265.042 57.7331 265.663 56.4309Z" fill="#3A1314"/>
<path d="M67.28 94.2872C66.1431 95.801 65.0127 97.3411 64.0477 98.9606C63.856 99.2845 62.7389 100.851 63.1223 101.182C67.0421 104.592 70.8759 108.651 75.5294 111.176C76.5077 111.705 80.6126 105.901 81.1018 105.247C81.4786 104.744 85.9933 98.7557 85.2596 98.3525C80.6126 95.8274 76.7722 91.7622 72.8524 88.358C72.2244 87.8093 67.6766 93.7584 67.28 94.2872Z" fill="#3A1314"/>
<path d="M44.9839 96.8419C43.8469 98.3556 42.7166 99.8958 41.7515 101.515C41.5598 101.839 40.4427 103.406 40.8261 103.736C44.7459 107.147 48.5798 111.206 53.2333 113.731C54.2116 114.26 58.3165 108.456 58.8057 107.801C59.1824 107.299 63.7038 101.31 62.9634 100.907C58.3165 98.3821 54.476 94.3168 50.5562 90.9126C49.9283 90.364 45.3805 96.3197 44.9839 96.8419Z" fill="#3A1314"/>
<path d="M164.469 161.062C165.605 159.548 166.736 158.008 167.701 156.388C167.893 156.064 169.01 154.498 168.626 154.167C164.707 150.756 160.873 146.698 156.219 144.173C155.241 143.644 151.136 149.448 150.647 150.102C150.27 150.604 145.749 156.593 146.489 156.996C151.136 159.521 154.976 163.587 158.896 166.991C159.531 167.539 164.079 161.584 164.469 161.062Z" fill="#3A1314"/>
<path d="M186.771 158.671C187.908 157.157 189.038 155.617 190.003 153.998C190.195 153.674 191.312 152.107 190.929 151.777C187.009 148.366 183.175 144.307 178.522 141.782C177.543 141.253 173.438 147.057 172.949 147.711C172.572 148.214 168.058 154.202 168.791 154.606C173.438 157.131 177.279 161.196 181.199 164.6C181.827 165.149 186.374 159.193 186.771 158.671Z" fill="#3A1314"/>
<path d="M190.281 69.1959C190.909 69.7446 195.457 63.7888 195.853 63.2666C196.99 61.7529 198.121 60.2128 199.086 58.5933C199.277 58.2694 200.394 56.7028 200.011 56.3723C196.091 52.9615 192.257 48.9028 187.604 46.3778C186.626 45.8489 182.521 51.6526 182.032 52.307C181.655 52.8094 177.133 58.7982 177.874 59.2014C182.521 61.7199 186.361 65.7851 190.281 69.1959Z" fill="#3A1314"/>
<path d="M299.692 73.6455C304.008 75.9921 307.571 79.7665 311.22 82.9327C311.808 83.4417 316.032 77.909 316.395 77.4265C317.453 76.0185 318.504 74.5907 319.396 73.0836C319.535 72.8523 320.157 71.9665 320.295 71.4113C320.302 71.4641 320.322 71.5038 320.361 71.5236C324.678 73.8702 328.241 77.6446 331.89 80.8109C332.478 81.3198 336.702 75.7872 337.065 75.3046C338.123 73.8967 339.174 72.4689 340.066 70.9618C340.245 70.6643 341.283 69.2101 340.926 68.8994C337.283 65.7332 333.721 61.9588 329.398 59.6122C328.485 59.1164 324.678 64.5169 324.222 65.1184C323.911 65.5282 320.659 69.8447 320.315 71.1601C320.309 71.1006 320.289 71.0543 320.256 71.0213C316.614 67.855 313.051 64.0806 308.728 61.734C307.815 61.2383 304.008 66.6388 303.552 67.2403C303.202 67.7096 299.011 73.2753 299.692 73.6455Z" fill="#3A1314"/>
<path d="M319.027 61.6653C319.939 62.1611 323.746 56.7606 324.202 56.1591C324.553 55.6897 328.75 50.124 328.069 49.7539C323.753 47.4073 320.19 43.6329 316.541 40.4666C315.953 39.9577 311.729 45.4903 311.365 45.9729C310.308 47.3808 309.257 48.8086 308.364 50.3157C308.186 50.6132 307.148 52.0674 307.505 52.3781C311.147 55.5443 314.71 59.3187 319.027 61.6653Z" fill="#3A1314"/>
<path d="M133.599 63.1666C136.356 67.0335 138.088 72.0374 137.83 76.8165C137.803 77.2792 137.684 78.2377 137.836 78.7136C137.962 79.1036 137.81 79.13 138.055 79.0507C138.511 78.8987 138.544 75.5209 138.564 75.1904C138.874 69.3206 138.18 63.4442 135.054 58.361C131.986 53.377 127.498 48.9812 122.878 45.4382C122.812 45.3853 122.349 48.3136 122.329 48.5648C122.276 49.3051 122.223 50.0587 122.256 50.799C122.27 51.0304 122.203 51.579 122.408 51.7377C126.626 54.9634 130.512 58.8435 133.599 63.1666Z" fill="#3A1314"/>
<path d="M129.448 254.799H129.428L128.311 255.401L128.146 254.74L129.554 253.986H130.294V260.425H129.455V254.799H129.448Z" fill="#3A1314"/>
<path d="M138.887 260.425V258.673H135.893V258.098L138.768 253.986H139.707V257.992H140.606V258.673H139.707V260.425H138.887ZM138.887 257.992V255.844C138.887 255.507 138.894 255.17 138.914 254.832H138.887C138.689 255.209 138.53 255.487 138.352 255.784L136.779 257.972V257.992H138.887Z" fill="#3A1314"/>
<path d="M147.527 260.425V258.673H144.532V258.098L147.408 253.986H148.346V257.992H149.245V258.673H148.346V260.425H147.527ZM147.527 257.992V255.844C147.527 255.507 147.533 255.17 147.553 254.832H147.527C147.328 255.209 147.17 255.487 146.991 255.784L145.418 257.972V257.992H147.527Z" fill="#3A1314"/>
<path d="M170.173 256.682V257.323H167.727V256.682H170.173Z" fill="#3A1314"/>
<path d="M180.227 260.424V259.888L180.908 259.227C182.554 257.661 183.294 256.828 183.307 255.856C183.307 255.202 182.99 254.6 182.032 254.6C181.45 254.6 180.961 254.898 180.663 255.142L180.386 254.527C180.829 254.151 181.463 253.873 182.21 253.873C183.598 253.873 184.18 254.825 184.18 255.744C184.18 256.934 183.321 257.892 181.959 259.201L181.443 259.677V259.697H184.339V260.417H180.227V260.424Z" fill="#3A1314"/>
<path d="M193.15 257.138C193.15 259.326 192.337 260.535 190.909 260.535C189.653 260.535 188.8 259.359 188.78 257.224C188.78 255.062 189.712 253.879 191.021 253.879C192.376 253.879 193.15 255.082 193.15 257.138ZM189.653 257.237C189.653 258.909 190.168 259.861 190.962 259.861C191.854 259.861 192.277 258.823 192.277 257.177C192.277 255.591 191.867 254.553 190.968 254.553C190.208 254.547 189.653 255.479 189.653 257.237Z" fill="#3A1314"/>
<path d="M197.506 260.424V259.888L198.187 259.227C199.833 257.661 200.573 256.828 200.586 255.856C200.586 255.202 200.269 254.6 199.31 254.6C198.729 254.6 198.24 254.898 197.942 255.142L197.664 254.527C198.107 254.151 198.742 253.873 199.489 253.873C200.877 253.873 201.459 254.825 201.459 255.744C201.459 256.934 200.599 257.892 199.238 259.201L198.722 259.677V259.697H201.617V260.417H197.506V260.424Z" fill="#3A1314"/>
<path d="M210.125 254.613H207.659L207.408 256.272C207.56 256.252 207.699 256.232 207.937 256.232C208.432 256.232 208.928 256.344 209.331 256.582C209.84 256.873 210.257 257.429 210.257 258.242C210.257 259.504 209.252 260.449 207.851 260.449C207.143 260.449 206.548 260.251 206.238 260.053L206.456 259.385C206.727 259.544 207.249 259.742 207.837 259.742C208.664 259.742 209.371 259.207 209.371 258.341C209.364 257.508 208.803 256.906 207.514 256.906C207.143 256.906 206.859 256.946 206.621 256.979L207.038 253.879H210.131V254.613H210.125Z" fill="#3A1314"/>
<path d="M156.662 254.68C156.49 254.666 156.265 254.68 156.027 254.719C154.705 254.937 154.005 255.909 153.859 256.934H153.886C154.183 256.537 154.699 256.213 155.393 256.213C156.497 256.213 157.277 257.006 157.277 258.229C157.277 259.373 156.497 260.424 155.201 260.424C153.866 260.424 152.993 259.386 152.993 257.767C152.993 256.537 153.436 255.572 154.051 254.957C154.567 254.448 155.261 254.131 156.047 254.038C156.298 253.999 156.51 253.992 156.662 253.992V254.68ZM156.417 258.276C156.417 257.383 155.908 256.848 155.128 256.848C154.619 256.848 154.15 257.165 153.919 257.615C153.859 257.714 153.82 257.833 153.82 257.991C153.84 259.016 154.309 259.776 155.195 259.776C155.928 259.776 156.417 259.168 156.417 258.276Z" fill="#3A1314"/>
</svg>
