<svg width="826" height="141" viewBox="0 0 826 141" fill="none" xmlns="http://www.w3.org/2000/svg">
<g opacity="0.75">
<path d="M15.7427 30.7525H12.1088V52.5555H2.47998V2.41016H19.0483C29.4376 2.41016 35.8088 7.04449 35.8088 16.009C35.8088 22.1641 31.9188 27.7109 25.2275 29.84H25.3555L39.7548 52.5555H28.6132L15.7427 30.7525ZM12.1088 6.59627V26.5743H18.9283C22.1139 26.5743 25.8758 23.989 25.8758 16.4732C25.8758 8.6453 22.8182 6.59627 19.0563 6.59627H12.1088Z" fill="black"/>
<path d="M86.2985 39.9503H69.6661L65.2719 52.5646H60.6855L79.0388 2.03516H81.8482L101.538 52.5646H91.0209L86.2985 39.9503ZM77.6941 16.7706L71.2589 35.388H84.6416L77.6941 16.7706Z" fill="black"/>
<path d="M143.855 52.9396L130.216 14.1841V52.5555H126.078V2.41016H135.955L148.194 36.7555L160.432 2.41016H170.245V52.5555H160.616V13.1196L146.657 52.9316H143.855V52.9396Z" fill="black"/>
<path d="M220.406 39.9503H203.774L199.38 52.5646H194.793L213.146 2.03516H215.948L235.638 52.5646H225.121L220.406 39.9503ZM211.802 16.7706L205.367 35.388H218.749L211.802 16.7706Z" fill="black"/>
<path d="M260.186 2.41016H278.155C291.218 2.41016 298.87 14.1121 298.87 27.4068C298.87 41.1577 291.218 52.5555 278.155 52.5555H260.186V2.41016ZM269.807 6.59627V48.3854H277.523C284.022 48.3854 288.864 43.9031 288.864 27.3427C288.864 11.8389 284.022 6.60427 277.523 6.60427H269.807V6.59627Z" fill="black"/>
<path d="M345.149 39.9503H328.517L324.122 52.5646H319.536L337.889 2.03516H340.699L360.389 52.5646H349.871L345.149 39.9503ZM336.545 16.7706L330.109 35.388H343.492L336.545 16.7706Z" fill="black"/>
<path d="M415.641 52.9414L389.067 11.7606V52.5652H384.929V2.41992H394.11L415.585 35.3966V2.41992H419.731V52.9494H415.641V52.9414Z" fill="black"/>
<path d="M493.024 52.5555H483.403V2.41016H493.024V52.5555ZM509.976 52.5555L493.472 27.4068L513.802 2.41016H519.285L501.5 23.6849L521.958 52.5555H509.976Z" fill="black"/>
<path d="M568.558 39.9503H551.925L547.531 52.5646H542.945L561.298 2.03516H564.108L583.797 52.5646H573.28L568.558 39.9503ZM559.953 16.7706L553.518 35.388H566.901L559.953 16.7706Z" fill="black"/>
<path d="M621.584 30.7525H617.95V52.5555H608.322V2.41016H624.89C635.279 2.41016 641.65 7.04449 641.65 16.009C641.65 22.1641 637.76 27.7109 631.069 29.84H631.197L645.596 52.5555H634.447L621.584 30.7525ZM617.958 6.59627V26.5743H624.778C627.963 26.5743 631.725 23.989 631.725 16.4732C631.725 8.6453 628.668 6.59627 624.906 6.59627H617.958Z" fill="black"/>
<path d="M671.562 2.41016H698.839V6.58827H681.182V25.3577H697.559V29.5358H681.182V48.3774H700.176V52.5555H671.562V2.41016Z" fill="black"/>
<path d="M726.702 2.41016H753.979V6.58827H736.323V25.3577H752.707V29.5358H736.323V48.3774H755.316V52.5555H726.702V2.41016Z" fill="black"/>
<path d="M799.61 52.9396L785.971 14.1841V52.5555H781.833V2.41016H791.71L803.948 36.7555L816.187 2.41016H825.999V52.5555H816.379V13.1196L802.42 52.9316H799.61V52.9396Z" fill="black"/>
<path d="M227.586 113.131H227.49L222.199 115.988L221.406 112.851L228.058 109.289H231.572V139.728H227.594V113.131H227.586Z" fill="black"/>
<path d="M272.216 139.728V131.444H258.073V128.723L271.656 109.289H276.106V128.203H280.364V131.436H276.106V139.72H272.216V139.728ZM272.216 128.211V118.045C272.216 116.461 272.264 114.86 272.36 113.275H272.216C271.28 115.052 270.527 116.365 269.687 117.773L262.243 128.123V128.219H272.216V128.211Z" fill="black"/>
<path d="M313.053 139.728V131.444H298.91V128.723L312.493 109.289H316.943V128.203H321.201V131.436H316.943V139.72H313.053V139.728ZM313.053 128.211V118.045C313.053 116.461 313.101 114.86 313.197 113.275H313.053C312.116 115.052 311.364 116.365 310.524 117.773L303.08 128.123V128.219H313.053V128.211Z" fill="black"/>
<path d="M420.059 122.025V125.067H408.493V122.025H420.059Z" fill="black"/>
<path d="M467.603 139.727V137.198L470.828 134.06C478.6 126.656 482.114 122.726 482.162 118.14C482.162 115.043 480.665 112.193 476.127 112.193C473.366 112.193 471.069 113.602 469.668 114.77L468.355 111.865C470.46 110.088 473.454 108.775 476.968 108.775C483.523 108.775 486.284 113.274 486.284 117.62C486.284 123.239 482.21 127.777 475.799 133.956L473.366 136.205V136.301H487.037V139.719H467.603V139.727Z" fill="black"/>
<path d="M528.666 124.175C528.666 134.524 524.824 140.239 518.084 140.239C512.137 140.239 508.111 134.668 508.015 124.599C508.015 114.394 512.417 108.775 518.597 108.775C525.016 108.775 528.666 114.482 528.666 124.175ZM512.137 124.647C512.137 132.563 514.57 137.054 518.316 137.054C522.535 137.054 524.543 132.139 524.543 124.359C524.543 116.867 522.623 111.953 518.364 111.953C514.755 111.961 512.137 116.355 512.137 124.647Z" fill="black"/>
<path d="M549.276 139.727V137.198L552.501 134.06C560.273 126.656 563.787 122.726 563.835 118.14C563.835 115.043 562.338 112.193 557.8 112.193C555.039 112.193 552.742 113.602 551.341 114.77L550.028 111.865C552.133 110.088 555.127 108.775 558.641 108.775C565.196 108.775 567.957 113.274 567.957 117.62C567.957 123.239 563.883 127.777 557.472 133.956L555.039 136.205V136.301H568.71V139.719H549.276V139.727Z" fill="black"/>
<path d="M608.898 112.257H597.244L596.067 120.101C596.772 120.005 597.428 119.917 598.557 119.917C600.91 119.917 603.255 120.437 605.136 121.566C607.537 122.927 609.506 125.56 609.506 129.41C609.506 135.373 604.76 139.839 598.132 139.839C594.795 139.839 591.977 138.895 590.521 137.958L591.553 134.813C592.826 135.565 595.307 136.501 598.084 136.501C601.982 136.501 605.32 133.964 605.32 129.874C605.272 125.928 602.639 123.111 596.532 123.111C594.787 123.111 593.426 123.295 592.297 123.439L594.274 108.775H608.89V112.257H608.898Z" fill="black"/>
<path d="M356.21 112.555C355.394 112.507 354.346 112.555 353.217 112.739C346.958 113.78 343.644 118.366 342.972 123.216H343.108C344.509 121.351 346.966 119.815 350.231 119.815C355.45 119.815 359.124 123.576 359.124 129.339C359.124 134.734 355.45 139.721 349.327 139.721C343.02 139.721 338.898 134.822 338.898 127.154C338.898 121.351 340.987 116.773 343.884 113.868C346.333 111.466 349.599 109.97 353.313 109.513C354.49 109.329 355.49 109.281 356.218 109.281V112.555H356.21ZM355.074 129.563C355.074 125.345 352.673 122.808 348.999 122.808C346.598 122.808 344.372 124.305 343.284 126.442C343.012 126.898 342.828 127.482 342.828 128.211C342.924 133.061 345.141 136.647 349.311 136.647C352.761 136.639 355.074 133.782 355.074 129.563Z" fill="black"/>
</g>
<path d="M14.1416 29.1509H10.5078V50.9539H0.878906V0.808594H17.4473C27.8365 0.808594 34.2077 5.44293 34.2077 14.4074C34.2077 20.5626 30.3178 26.1094 23.6264 28.2384H23.7544L38.1537 50.9539H27.0121L14.1416 29.1509ZM10.5078 4.9947V24.9728H17.3272C20.5128 24.9728 24.2747 22.3875 24.2747 14.8717C24.2747 7.04374 21.2172 4.9947 17.4553 4.9947H10.5078Z" fill="#D3C5BD"/>
<path d="M84.6974 38.3487H68.065L63.6708 50.9631H59.0845L77.4377 0.433594H80.2472L99.9371 50.9631H89.4198L84.6974 38.3487ZM76.0931 15.169L69.6578 33.7864H83.0406L76.0931 15.169Z" fill="#D3C5BD"/>
<path d="M142.254 51.3381L128.615 12.5825V50.9539H124.477V0.808594H134.354L146.592 35.1539L158.831 0.808594H168.644V50.9539H159.015V11.518L145.056 51.3301H142.254V51.3381Z" fill="#D3C5BD"/>
<path d="M218.805 38.3487H202.173L197.778 50.9631H193.192L211.545 0.433594H214.347L234.037 50.9631H223.519L218.805 38.3487ZM210.201 15.169L203.765 33.7864H217.148L210.201 15.169Z" fill="#D3C5BD"/>
<path d="M258.585 0.808594H276.554C289.617 0.808594 297.268 12.5105 297.268 25.8052C297.268 39.5561 289.617 50.9539 276.554 50.9539H258.585V0.808594ZM268.206 4.9947V46.7838H275.922C282.421 46.7838 287.263 42.3015 287.263 25.7412C287.263 10.2373 282.421 5.0027 275.922 5.0027H268.206V4.9947Z" fill="#D3C5BD"/>
<path d="M343.548 38.3487H326.916L322.521 50.9631H317.935L336.288 0.433594H339.098L358.788 50.9631H348.27L343.548 38.3487ZM334.944 15.169L328.508 33.7864H341.891L334.944 15.169Z" fill="#D3C5BD"/>
<path d="M414.039 51.3399L387.466 10.1591V50.9637H383.328V0.818359H392.508L413.983 33.795V0.818359H418.129V51.3479H414.039V51.3399Z" fill="#D3C5BD"/>
<path d="M491.423 50.9539H481.802V0.808594H491.423V50.9539ZM508.375 50.9539L491.871 25.8052L512.201 0.808594H517.684L499.899 22.0833L520.357 50.9539H508.375Z" fill="#D3C5BD"/>
<path d="M566.957 38.3487H550.324L545.93 50.9631H541.344L559.697 0.433594H562.506L582.196 50.9631H571.679L566.957 38.3487ZM558.352 15.169L551.917 33.7864H565.3L558.352 15.169Z" fill="#D3C5BD"/>
<path d="M619.983 29.1509H616.349V50.9539H606.72V0.808594H623.289C633.678 0.808594 640.049 5.44293 640.049 14.4074C640.049 20.5626 636.159 26.1094 629.468 28.2384H629.596L643.995 50.9539H632.846L619.983 29.1509ZM616.357 4.9947V24.9728H623.177C626.362 24.9728 630.124 22.3875 630.124 14.8717C630.124 7.04374 627.067 4.9947 623.305 4.9947H616.357Z" fill="#D3C5BD"/>
<path d="M669.96 0.808594H697.238V4.9867H679.581V23.7562H695.958V27.9343H679.581V46.7758H698.575V50.9539H669.96V0.808594Z" fill="#D3C5BD"/>
<path d="M725.101 0.808594H752.378V4.9867H734.721V23.7562H751.106V27.9343H734.721V46.7758H753.715V50.9539H725.101V0.808594Z" fill="#D3C5BD"/>
<path d="M798.009 51.3381L784.37 12.5825V50.9539H780.232V0.808594H790.109L802.347 35.1539L814.586 0.808594H824.398V50.9539H814.778V11.518L800.819 51.3301H798.009V51.3381Z" fill="#D3C5BD"/>
<path d="M225.985 111.531H225.888L220.598 114.389L219.805 111.251L226.457 107.689H229.971V138.129H225.993V111.531H225.985Z" fill="#D3C5BD"/>
<path d="M270.615 138.129V129.845H256.472V127.123L270.055 107.689H274.505V126.603H278.763V129.837H274.505V138.121H270.615V138.129ZM270.615 126.611V116.446C270.615 114.861 270.663 113.26 270.759 111.675H270.615C269.679 113.452 268.926 114.765 268.086 116.174L260.642 126.523V126.619H270.615V126.611Z" fill="#D3C5BD"/>
<path d="M311.452 138.129V129.845H297.309V127.123L310.891 107.689H315.342V126.603H319.6V129.837H315.342V138.121H311.452V138.129ZM311.452 126.611V116.446C311.452 114.861 311.5 113.26 311.596 111.675H311.452C310.515 113.452 309.763 114.765 308.922 116.174L301.479 126.523V126.619H311.452V126.611Z" fill="#D3C5BD"/>
<path d="M418.458 120.422V123.463H406.892V120.422H418.458Z" fill="#D3C5BD"/>
<path d="M466.002 138.127V135.598L469.227 132.461C476.999 125.057 480.513 121.127 480.561 116.54C480.561 113.443 479.064 110.593 474.526 110.593C471.765 110.593 469.467 112.002 468.067 113.171L466.754 110.265C468.859 108.488 471.853 107.176 475.366 107.176C481.922 107.176 484.683 111.674 484.683 116.02C484.683 121.639 480.609 126.177 474.198 132.356L471.765 134.606V134.702H485.436V138.119H466.002V138.127Z" fill="#D3C5BD"/>
<path d="M527.065 122.576C527.065 132.925 523.223 138.64 516.483 138.64C510.536 138.64 506.51 133.069 506.414 123C506.414 112.795 510.816 107.176 516.995 107.176C523.415 107.176 527.065 112.883 527.065 122.576ZM510.536 123.048C510.536 130.964 512.969 135.454 516.715 135.454C520.933 135.454 522.942 130.54 522.942 122.76C522.942 115.268 521.021 110.353 516.763 110.353C513.154 110.361 510.536 114.756 510.536 123.048Z" fill="#D3C5BD"/>
<path d="M547.675 138.127V135.598L550.9 132.461C558.672 125.057 562.186 121.127 562.234 116.54C562.234 113.443 560.737 110.593 556.199 110.593C553.438 110.593 551.141 112.002 549.74 113.171L548.427 110.265C550.532 108.488 553.526 107.176 557.039 107.176C563.595 107.176 566.356 111.674 566.356 116.02C566.356 121.639 562.282 126.177 555.871 132.356L553.438 134.606V134.702H567.109V138.119H547.675V138.127Z" fill="#D3C5BD"/>
<path d="M607.297 110.658H595.643L594.466 118.501C595.171 118.405 595.827 118.317 596.956 118.317C599.309 118.317 601.654 118.838 603.535 119.966C605.936 121.327 607.905 123.96 607.905 127.81C607.905 133.773 603.159 138.239 596.531 138.239C593.194 138.239 590.376 137.295 588.919 136.359L589.952 133.213C591.225 133.965 593.706 134.902 596.483 134.902C600.381 134.902 603.719 132.364 603.719 128.274C603.671 124.328 601.038 121.511 594.93 121.511C593.186 121.511 591.825 121.695 590.696 121.839L592.673 107.176H607.289V110.658H607.297Z" fill="#D3C5BD"/>
<path d="M354.609 110.955C353.793 110.907 352.744 110.955 351.616 111.139C345.357 112.18 342.043 116.766 341.371 121.617H341.507C342.907 119.752 345.365 118.215 348.63 118.215C353.849 118.215 357.523 121.977 357.523 127.74C357.523 133.134 353.849 138.121 347.726 138.121C341.419 138.121 337.297 133.223 337.297 125.555C337.297 119.752 339.386 115.173 342.283 112.268C344.732 109.867 347.998 108.37 351.712 107.914C352.889 107.73 353.889 107.682 354.617 107.682V110.955H354.609ZM353.473 127.964C353.473 123.746 351.072 121.208 347.398 121.208C344.997 121.208 342.771 122.705 341.683 124.842C341.411 125.299 341.227 125.883 341.227 126.611C341.323 131.462 343.54 135.047 347.71 135.047C351.16 135.039 353.473 132.182 353.473 127.964Z" fill="#D3C5BD"/>
</svg>
