<svg width="123" height="379" viewBox="0 0 123 379" fill="none" xmlns="http://www.w3.org/2000/svg">
<path d="M46.7933 344.033L46.7933 0" stroke="#381112" stroke-width="0.75" stroke-miterlimit="10"/>
<path d="M65.0814 356.261L52.6182 354.571L47.0407 344.033L41.4632 354.571L29 356.261L38.0248 364.456L35.8945 376.041L47.0407 370.574L58.1957 376.041L56.0655 364.456L65.0814 356.261Z" fill="#381112" stroke="#381112" stroke-width="2.99824" stroke-miterlimit="10"/>
<path d="M15.0374 145.18V0.332031" stroke="#381112" stroke-width="0.75" stroke-miterlimit="10"/>
<path d="M27.0746 145.207L18.7559 144.083L15.0373 137.051L11.3187 144.083L3 145.207L9.01865 150.68L7.60011 158.402L15.0373 154.753L22.4745 158.402L21.056 150.68L27.0746 145.207Z" fill="#381112" stroke="#381112" stroke-width="2.57769" stroke-miterlimit="10"/>
<path d="M119.555 198.663L111.768 197.608L108.282 191.018L104.797 197.608L97 198.663L102.641 203.792L101.312 211.038L108.282 207.619L115.253 211.038L113.924 203.792L119.555 198.663Z" fill="#381112" stroke="#381112" stroke-width="2.41603" stroke-miterlimit="10"/>
<path d="M108.743 191.018L108.743 0" stroke="#381112" stroke-width="0.75" stroke-miterlimit="10"/>
</svg>
