<svg width="159" height="498" viewBox="0 0 159 498" fill="none" xmlns="http://www.w3.org/2000/svg">
<path d="M81.6956 105.07V25.0703" stroke="#381112" stroke-width="0.75" stroke-miterlimit="10"/>
<path d="M97.8237 116.748L86.6542 115.124L81.6556 105L76.6571 115.124L65.4875 116.748L73.5676 124.63L71.6664 135.76L81.6556 130.5L91.6528 135.76L89.7436 124.63L97.8237 116.748Z" fill="#381112" stroke="#381112" stroke-width="1.58433" stroke-miterlimit="10"/>
<mask id="path-3-inside-1_1454_1475" fill="white">
<path d="M127.045 0H126.045V362H127.045V0Z"/>
</mask>
<path d="M127.045 0H126.045V362H127.045V0Z" fill="#E1E2E4"/>
<path d="M126.045 0V-1H125.045V0H126.045ZM127.045 0H128.045V-1H127.045V0ZM127.045 362V363H128.045V362H127.045ZM126.045 362H125.045V363H126.045V362ZM126.045 1H127.045V-1H126.045V1ZM126.045 0V362H128.045V0H126.045ZM127.045 361H126.045V363H127.045V361ZM127.045 362V0H125.045V362H127.045Z" fill="#381112" mask="url(#path-3-inside-1_1454_1475)"/>
<path d="M126.528 438.768C122.835 434.536 118.056 431.935 113.81 429.628C110.807 427.996 107.981 426.46 106.124 424.665C105.27 423.839 104.636 422.481 104.431 421.04C104.26 419.839 104.294 417.962 105.468 415.88L106.404 414.228V392.636L105.468 390.977C104.294 388.895 104.253 387.025 104.431 385.817C104.636 384.376 105.27 383.018 106.124 382.192C107.974 380.397 110.8 378.861 113.797 377.229C118.049 374.922 122.835 372.314 126.521 368.082C130.214 372.314 134.999 374.915 139.245 377.222C142.242 378.854 145.075 380.397 146.924 382.185C147.778 383.011 148.413 384.37 148.617 385.81C148.788 387.011 148.754 388.889 147.58 390.971L146.645 392.623V414.221L147.58 415.88C148.747 417.955 148.788 419.832 148.617 421.034C148.413 422.474 147.778 423.832 146.924 424.658C145.075 426.454 142.242 427.99 139.245 429.621C134.999 431.928 130.214 434.529 126.521 438.768H126.528ZM138.084 416.419H142.876V391.701H138.084V416.419ZM118.814 416.419H134.241V391.701H118.814V416.419ZM110.185 416.419H114.977V391.701H110.185V416.419Z" fill="#381112"/>
<path d="M126.527 437.246C122.841 433.369 118.322 430.911 114.295 428.727C111.359 427.13 108.588 425.628 106.834 423.928C106.144 423.266 105.612 422.099 105.441 420.89C105.291 419.846 105.325 418.214 106.363 416.378L107.428 414.487V392.357L106.363 390.466C105.332 388.636 105.298 387.005 105.448 385.953C105.619 384.745 106.158 383.585 106.84 382.916C108.588 381.223 111.359 379.714 114.295 378.124C118.322 375.932 122.848 373.475 126.534 369.598C130.221 373.475 134.746 375.932 138.767 378.124C141.702 379.721 144.474 381.223 146.228 382.923C146.911 383.585 147.45 384.752 147.621 385.96C147.771 387.005 147.737 388.636 146.699 390.472L145.634 392.357V414.494L146.706 416.385C147.737 418.208 147.771 419.839 147.621 420.89C147.45 422.099 146.911 423.259 146.228 423.928C144.481 425.628 141.709 427.13 138.774 428.727C134.753 430.911 130.227 433.376 126.541 437.253L126.527 437.246ZM137.06 417.443H143.9V390.677H137.06V417.443ZM117.79 417.443H135.265V390.677H117.79V417.443ZM109.161 417.443H116.001V390.677H109.161V417.443Z" fill="#381112"/>
<g filter="url(#filter0_d_1454_1475)">
<path d="M126.528 369.591C124.432 369.591 122.732 367.884 122.732 365.795C122.732 363.707 124.439 362 126.528 362C128.616 362 130.323 363.707 130.323 365.795C130.323 367.884 128.623 369.591 126.528 369.591ZM126.528 363.358C125.19 363.358 124.097 364.451 124.097 365.789C124.097 367.127 125.19 368.219 126.528 368.219C127.866 368.219 128.958 367.127 128.958 365.789C128.958 364.451 127.866 363.358 126.528 363.358Z" fill="#381112"/>
</g>
<path d="M23.2119 186.681L15.972 185.631L12.7356 179.07L9.49922 185.631L2.25928 186.681L7.49744 191.787L6.26286 199L12.7356 195.596L19.2083 199L17.9738 191.787L23.2119 186.681Z" fill="#381112" stroke="#381112" stroke-width="0.881845" stroke-miterlimit="10"/>
<path d="M12.6956 179.07V25.0703" stroke="#381112" stroke-width="0.75" stroke-miterlimit="10"/>
<defs>
<filter id="filter0_d_1454_1475" x="95.427" y="334.695" width="62.2011" height="62.2021" filterUnits="userSpaceOnUse" color-interpolation-filters="sRGB">
<feFlood flood-opacity="0" result="BackgroundImageFix"/>
<feColorMatrix in="SourceAlpha" type="matrix" values="0 0 0 0 0 0 0 0 0 0 0 0 0 0 0 0 0 0 127 0" result="hardAlpha"/>
<feOffset/>
<feGaussianBlur stdDeviation="13.6526"/>
<feColorMatrix type="matrix" values="0 0 0 0 0.0784314 0 0 0 0 0.0784314 0 0 0 0 0.0784314 0 0 0 1 0"/>
<feBlend mode="normal" in2="BackgroundImageFix" result="effect1_dropShadow_1454_1475"/>
<feBlend mode="normal" in="SourceGraphic" in2="effect1_dropShadow_1454_1475" result="shape"/>
</filter>
</defs>
</svg>
