<?xml version="1.0" encoding="UTF-8"?>
<svg id="Layer_1" xmlns="http://www.w3.org/2000/svg" version="1.1" viewBox="0 0 300.7 300.7">
  <!-- Generator: Adobe Illustrator 29.7.1, SVG Export Plug-In . SVG Version: 2.1.1 Build 8)  -->
  <path d="M300.4,33.7v-.4h-22.4v-9.3h5.5v-7h-7v5.4h-9.5V.4h-.4s-232.1,0-232.1,0h-.4v22h-9.5v-5.4h-7.1v7h5.5v9.3H.4v.4s0,233.4,0,233.4v.4s.4,0,.4,0h22.1v9.3h-5.6v7h7.1v-5.4h9.5v22h232.5s.4,0,.4,0v-22h9.5v5.4h7.1v-7h-5.4v-9.3h22.4V33.7ZM276.3,266v10.6h-11.2v22H35.6s0-21.6,0-21.6v-.4h-11.2v-11H2V34.8h22.4v-11h11.2V1.8h229.6s0,21.6,0,21.6v.4h11.2v11h22.4v231h-22c0-.1-.4-.1-.4-.1v.4ZM278.1,22.3v-3.7h3.9v3.7h-3.9ZM278.1,282.2v-3.7h3.8v3.7h-3.8ZM19,22.3v-3.7h3.8v3.7h-3.8ZM19,282.2v-3.7h3.8v3.7h-3.8Z" fill="#643d3f" stroke="#643d3f" stroke-width=".7"/>
  <path d="M296.4,37.2v-.4h-22.5v-7.5h14.8V11.5h-18.1v14.4h-7.7V3.9H38.2v22h-7.7v-14.4H12.4v17.8h14.6v7.5H4.6v226.8s0,.4,0,.4h22.4v7.5h-14.6v17.8h18.1v-14.3h7.7v22h224.7v-22h7.6v14.3h18.1v-17.8h-14.6v-7.5h22.5V37.2ZM270.5,40.1v.4h22.4v220.2h-22.4v11h-11.2v22H41.6v-22h-11.2v-11H8.1V40.5s22,0,22,0h.4v-11h11.2V7.5h217.7v22h11.2v10.6ZM273.9,26v-10.9h11.1v10.9h-11.1ZM273.9,286.2v-10.9h11.1v10.9h-11.1ZM15.8,26v-10.9h11.2v10.9h-11.2ZM15.8,286.2v-10.9h11.2v10.9h-11.2Z" fill="#643d3f" stroke="#643d3f" stroke-width=".7"/>
</svg>